<svg width="46" height="46" viewBox="0 0 46 46" fill="none" xmlns="http://www.w3.org/2000/svg">
<rect x="1" y="1" width="44" height="44" rx="22" fill="#0A66C2"/>
<rect x="1" y="1" width="44" height="44" rx="22" stroke="#165EF0" stroke-opacity="0.2"/>
<path d="M31.6476 31.2448C31.6475 31.3552 31.558 31.4447 31.4476 31.4447H28.1933C28.0829 31.4447 27.9933 31.3552 27.9933 31.2447V25.7784C27.9933 24.4273 27.969 22.6879 26.0928 22.6879C24.1895 22.6879 23.8983 24.16 23.8983 25.6801V31.2443C23.8983 31.3548 23.8088 31.4443 23.6983 31.4443H20.4441C20.3337 31.4443 20.2441 31.3548 20.2441 31.2443V19.9922C20.2441 19.8817 20.3337 19.7922 20.4441 19.7922H23.5522C23.6626 19.7922 23.7522 19.8817 23.7522 19.9922V21.3846H23.8013C24.1523 20.7902 24.6597 20.3013 25.2692 19.9698C25.8787 19.6383 26.5676 19.4768 27.2625 19.5023C30.9662 19.5023 31.6491 21.9145 31.6491 25.0525L31.6476 31.2448ZM16.121 18.1994C15.7015 18.1995 15.2915 18.0764 14.9428 17.8457C14.594 17.6151 14.3221 17.2872 14.1616 16.9036C14.001 16.5199 13.9589 16.0978 14.0407 15.6904C14.1224 15.2831 14.3243 14.909 14.6208 14.6153C14.9174 14.3216 15.2952 14.1215 15.7065 14.0404C16.1178 13.9593 16.5442 14.0008 16.9317 14.1597C17.3193 14.3185 17.6505 14.5876 17.8836 14.9329C18.1166 15.2781 18.2411 15.684 18.2412 16.0993C18.2412 16.3751 18.1864 16.6481 18.0799 16.9029C17.9734 17.1576 17.8172 17.3891 17.6203 17.5841C17.4235 17.7792 17.1897 17.9339 16.9324 18.0394C16.6752 18.145 16.3994 18.1993 16.121 18.1994ZM17.9481 31.2447C17.9481 31.3552 17.8585 31.4447 17.7481 31.4447H14.4901C14.3796 31.4447 14.2901 31.3552 14.2901 31.2447V19.9922C14.2901 19.8817 14.3796 19.7922 14.4901 19.7922H17.7481C17.8585 19.7922 17.9481 19.8817 17.9481 19.9922V31.2447Z" fill="white"/>
</svg>
