<svg width="64" height="64" viewBox="0 0 64 64" fill="none" xmlns="http://www.w3.org/2000/svg">
<g clip-path="url(#clip0_751_515)">
<path d="M63.4456 46.565L56.8856 43.285L52.7106 32.425C52.6615 32.2966 52.5864 32.1797 52.49 32.0816C52.3937 31.9836 52.2781 31.9064 52.1506 31.855L26.2456 21.5C26.0645 21.4279 25.8662 21.4103 25.6753 21.4494C25.4843 21.4885 25.3089 21.5825 25.1706 21.72L21.7156 25.175C21.58 25.3133 21.4875 25.4881 21.4493 25.6781C21.4111 25.868 21.429 26.065 21.5006 26.245L31.8556 52.15C31.907 52.2775 31.9842 52.393 32.0823 52.4894C32.1803 52.5858 32.2972 52.6609 32.4256 52.71L43.2856 56.885L46.5656 63.445C46.6347 63.5896 46.7375 63.7156 46.8654 63.8121C46.9933 63.9087 47.1426 63.9732 47.3006 64C47.3538 64.0049 47.4074 64.0049 47.4606 64C47.7254 63.9989 47.9789 63.8928 48.1656 63.705L63.7056 48.165C63.82 48.0546 63.9064 47.9186 63.9577 47.7682C64.009 47.6177 64.0237 47.4572 64.0006 47.3C63.9738 47.142 63.9094 46.9927 63.8128 46.8648C63.7162 46.7369 63.5903 46.6341 63.4456 46.565ZM23.5956 26.115L24.1506 25.565L37.0456 38.46C36.1958 39.6642 35.8288 41.1435 36.0171 42.6053C36.2054 44.067 36.9354 45.405 38.0628 46.3544C39.1901 47.3039 40.6326 47.7958 42.1051 47.7329C43.5777 47.6699 44.973 47.0567 46.0152 46.0146C47.0574 44.9724 47.6706 43.5771 47.7335 42.1045C47.7964 40.632 47.3045 39.1894 46.3551 38.0621C45.4056 36.9348 44.0677 36.2048 42.6059 36.0165C41.1441 35.8281 39.6648 36.1952 38.4606 37.045L25.5656 24.15L26.1156 23.595L51.0006 33.55L54.9256 43.76L43.7606 54.925L33.5506 51L23.5956 26.115ZM41.8506 37.965C42.7494 37.9663 43.6198 38.2792 44.3138 38.8504C45.0077 39.4215 45.4821 40.2156 45.6562 41.0973C45.8304 41.979 45.6934 42.8938 45.2687 43.6859C44.844 44.478 44.1578 45.0983 43.327 45.4411C42.4962 45.784 41.5723 45.8283 40.7126 45.5663C39.8528 45.3044 39.1105 44.7525 38.6121 44.0046C38.1136 43.2568 37.8899 42.3592 37.979 41.4649C38.0681 40.5706 38.4644 39.7348 39.1006 39.1C39.8307 38.3722 40.8198 37.964 41.8506 37.965ZM47.7356 61.31L45.2356 56.31L56.3006 45.245L61.3006 47.745L47.7356 61.31Z" fill="#FFBB17"/>
<path fill-rule="evenodd" clip-rule="evenodd" d="M15.9401 22.9C16.9118 23.4347 18.0305 23.64 19.1287 23.4854C20.2269 23.3307 21.2454 22.8243 22.0316 22.0421C22.8178 21.2598 23.3293 20.2439 23.4895 19.1465C23.6497 18.0491 23.4499 16.9293 22.9201 15.955L21.2701 14.145C20.2822 13.4823 19.0949 13.1832 17.9109 13.2987C16.7269 13.4142 15.6198 13.9373 14.7786 14.7785C13.9374 15.6196 13.4144 16.7268 13.2989 17.9107C13.1833 19.0947 13.4825 20.2821 14.1451 21.27L15.9401 22.9ZM17.2158 15.5187C16.8357 15.6767 16.4905 15.9082 16.2001 16.2C15.7612 16.6383 15.4621 17.1968 15.3408 17.8051C15.2194 18.4134 15.2812 19.044 15.5183 19.6171C15.7554 20.1903 16.1573 20.6802 16.6729 21.0249C17.1886 21.3696 17.7949 21.5536 18.4151 21.5536C19.0354 21.5536 19.6417 21.3696 20.1574 21.0249C20.673 20.6802 21.0749 20.1903 21.312 19.6171C21.5491 19.044 21.6109 18.4134 21.4895 17.8051C21.3682 17.1968 21.0691 16.6383 20.6301 16.2C20.3398 15.9082 19.9946 15.6767 19.6145 15.5187C19.2344 15.3607 18.8268 15.2794 18.4151 15.2794C18.0035 15.2794 17.5959 15.3607 17.2158 15.5187Z" fill="#165EF0"/>
<path fill-rule="evenodd" clip-rule="evenodd" d="M32.4301 5.81501C33.0838 6.12735 33.827 6.19805 34.5278 6.01457C35.2287 5.83109 35.8419 5.40529 36.2586 4.81271C36.6754 4.22013 36.8688 3.49908 36.8045 2.77748C36.7402 2.05588 36.4224 1.38038 35.9074 0.870822C35.3924 0.361261 34.7136 0.0505802 33.9914 -0.0061027C33.2691 -0.0627856 32.5502 0.138194 31.962 0.56118C31.3739 0.984167 30.9546 1.60181 30.7785 2.30455C30.6024 3.00728 30.6809 3.74967 31.0001 4.40001L32.4301 5.81501ZM33.5453 2.02112C33.3385 2.06291 33.1487 2.1652 33.0001 2.31501C32.9016 2.41346 32.8234 2.53037 32.77 2.65906C32.7167 2.78776 32.6892 2.9257 32.6892 3.06501C32.6892 3.20433 32.7167 3.34227 32.77 3.47096C32.8234 3.59965 32.9016 3.71657 33.0001 3.81501C33.1487 3.96482 33.3385 4.06712 33.5453 4.10891C33.7521 4.15071 33.9667 4.13012 34.1618 4.04977C34.3569 3.96942 34.5238 3.83292 34.6412 3.6576C34.7586 3.48227 34.8213 3.27602 34.8213 3.06501C34.8213 2.85401 34.7586 2.64776 34.6412 2.47243C34.5238 2.29711 34.3569 2.16061 34.1618 2.08026C33.9667 1.9999 33.7521 1.97932 33.5453 2.02112Z" fill="#165EF0"/>
<path fill-rule="evenodd" clip-rule="evenodd" d="M4.40015 31C3.74726 30.6819 3.00273 30.6055 2.29885 30.7845C1.59497 30.9634 0.977336 31.3862 0.555695 31.9775C0.134054 32.5689 -0.0642843 33.2905 -0.00407674 34.0143C0.0561309 34.7381 0.370985 35.4171 0.884538 35.9306C1.39809 36.4442 2.07708 36.759 2.80085 36.8192C3.52463 36.8794 4.24631 36.6811 4.83766 36.2595C5.429 35.8378 5.85172 35.2202 6.03069 34.5163C6.20966 33.8124 6.13328 33.0679 5.81515 32.415L4.40015 31ZM3.08999 34.746C3.35555 34.758 3.61599 34.6703 3.82015 34.5C3.91872 34.4016 3.99691 34.2847 4.05027 34.156C4.10362 34.0273 4.13108 33.8893 4.13108 33.75C4.13108 33.6107 4.10362 33.4728 4.05027 33.3441C3.99691 33.2154 3.91872 33.0985 3.82015 33C3.62004 32.8034 3.35071 32.6932 3.07015 32.6932C2.78959 32.6932 2.52025 32.8034 2.32015 33C2.14989 33.2042 2.06215 33.4646 2.07415 33.7302C2.08615 33.9957 2.19702 34.2472 2.38499 34.4352C2.57296 34.6231 2.82443 34.734 3.08999 34.746Z" fill="#165EF0"/>
<path fill-rule="evenodd" clip-rule="evenodd" d="M19.1251 53.5C18.9339 53.3193 18.6808 53.2186 18.4176 53.2186C18.1545 53.2186 17.9014 53.3193 17.7101 53.5L16.4401 54.77L15.0001 56.215L13.3101 57.91C13.1239 58.0974 13.0194 58.3508 13.0194 58.615C13.0194 58.8792 13.1239 59.1327 13.3101 59.32L17.6951 63.705C17.8818 63.8928 18.1354 63.9989 18.4001 64C18.5321 64.0001 18.6628 63.9741 18.7846 63.9235C18.9065 63.8728 19.0171 63.7986 19.1101 63.705L23.5001 59.32C23.6864 59.1327 23.7909 58.8792 23.7909 58.615C23.7909 58.3508 23.6864 58.0974 23.5001 57.91L19.1251 53.5ZM15.4451 58.595L18.4151 61.565L21.3851 58.595L18.4151 55.625L15.4451 58.595Z" fill="#165EF0"/>
<path fill-rule="evenodd" clip-rule="evenodd" d="M15.0001 56.215C11.8591 52.0361 9.88676 47.0966 9.28573 41.9035C8.6847 36.7104 9.47661 31.4509 11.5801 26.665L5.81515 32.415L4.40015 31L14.1451 21.27L15.9401 22.9C12.697 27.6038 11.0021 33.2022 11.0918 38.915C11.1814 44.6278 13.051 50.1703 16.4401 54.77L15.0001 56.215ZM38.9351 11.1066C33.2224 11.017 27.624 12.7119 22.9201 15.955L21.2701 14.145L31.0001 4.40001L32.4301 5.81501L26.6651 11.565C31.4523 9.46358 36.7125 8.67416 41.9057 9.27783C47.0988 9.8815 52.0377 11.8565 56.2151 15L54.7901 16.455C50.1904 13.0659 44.6479 11.1963 38.9351 11.1066Z" fill="black"/>
<path fill-rule="evenodd" clip-rule="evenodd" d="M54.7901 16.455L53.5001 17.71C53.3142 17.8975 53.2099 18.1509 53.2101 18.415C53.2094 18.5466 53.2346 18.6771 53.2844 18.7989C53.3341 18.9208 53.4075 19.0316 53.5001 19.125L57.9101 23.5C58.0975 23.6863 58.351 23.7908 58.6151 23.7908C58.8793 23.7908 59.1328 23.6863 59.3201 23.5L63.7051 19.115C63.7981 19.0221 63.8719 18.9119 63.9222 18.7905C63.9725 18.6691 63.9984 18.5389 63.9984 18.4075C63.9984 18.2761 63.9725 18.146 63.9222 18.0246C63.8719 17.9032 63.7981 17.7929 63.7051 17.7L59.3201 13.315C59.1328 13.1288 58.8793 13.0242 58.6151 13.0242C58.351 13.0242 58.0975 13.1288 57.9101 13.315L56.2151 15L54.7901 16.455ZM61.5951 18.395L58.6251 15.425L55.6551 18.395L58.6251 21.365L61.5951 18.395Z" fill="#165EF0"/>
</g>
<defs>
<clipPath id="clip0_751_515">
<rect width="64" height="64" fill="white"/>
</clipPath>
</defs>
</svg>
