<svg width="36" height="36" viewBox="0 0 36 36" fill="none" xmlns="http://www.w3.org/2000/svg">
<path d="M6 10.4997C6 9.70405 6.31607 8.94098 6.87868 8.37837C7.44129 7.81577 8.20435 7.49969 9 7.49969H27C27.7956 7.49969 28.5587 7.81577 29.1213 8.37837C29.6839 8.94098 30 9.70405 30 10.4997V28.4997C30 29.2953 29.6839 30.0584 29.1213 30.621C28.5587 31.1836 27.7956 31.4997 27 31.4997H9C8.20435 31.4997 7.44129 31.1836 6.87868 30.621C6.31607 30.0584 6 29.2953 6 28.4997V10.4997Z" stroke="#165EF0" stroke-width="2.16" stroke-linecap="round" stroke-linejoin="round"/>
<path d="M24 4.5V10.5" stroke="#165EF0" stroke-width="2.16" stroke-linecap="round" stroke-linejoin="round"/>
<path d="M12 4.5V10.5" stroke="#165EF0" stroke-width="2.16" stroke-linecap="round" stroke-linejoin="round"/>
<path d="M6 16.4997H30" stroke="#165EF0" stroke-width="2.16" stroke-linecap="round" stroke-linejoin="round"/>
<path d="M12 22.5H15V25.5H12V22.5Z" stroke="#165EF0" stroke-width="2.16" stroke-linecap="round" stroke-linejoin="round"/>
</svg>
