<svg width="22" height="22" viewBox="0 0 22 22" fill="none" xmlns="http://www.w3.org/2000/svg">
<path d="M18.6395 3.05566H3.36176C2.51799 3.05566 1.83398 3.73967 1.83398 4.58344V18.639C1.83398 19.4828 2.51799 20.1668 3.36176 20.1668H18.6395C19.4833 20.1668 20.1673 19.4828 20.1673 18.639V4.58344C20.1673 3.73967 19.4833 3.05566 18.6395 3.05566Z" fill="#BAD4E5"/>
<path d="M20.1673 5.19428V16.3226L16.9345 19.5554H3.36176C2.95657 19.5554 2.56797 19.3944 2.28146 19.1079C1.99495 18.8214 1.83398 18.4328 1.83398 18.0276V5.19428C1.83398 4.78909 1.99495 4.40049 2.28146 4.11398C2.56797 3.82747 2.95657 3.6665 3.36176 3.6665H18.6395C19.0447 3.6665 19.4333 3.82747 19.7198 4.11398C20.0064 4.40049 20.1673 4.78909 20.1673 5.19428Z" fill="#97C0DD"/>
<path d="M20.1673 4.58344V15.7118L16.9345 18.9446H3.36176C2.95657 18.9446 2.56797 18.7836 2.28146 18.4971C1.99495 18.2106 1.83398 17.822 1.83398 17.4168V4.58344C1.83398 4.17825 1.99495 3.78965 2.28146 3.50314C2.56797 3.21663 2.95657 3.05566 3.36176 3.05566H18.6395C19.0447 3.05566 19.4333 3.21663 19.7198 3.50314C20.0064 3.78965 20.1673 4.17825 20.1673 4.58344Z" fill="#EAF3F9"/>
<path d="M20.1665 14.6665V15.7115L16.9337 18.9443H15.8887V16.1943C15.8887 15.7891 16.0496 15.4005 16.3361 15.114C16.6227 14.8275 17.0113 14.6665 17.4164 14.6665H20.1665Z" fill="#C5DEF3"/>
<path d="M20.1667 14.6665V15.7115L16.9339 18.9443H16.5V16.1943C16.5 15.7891 16.661 15.4005 16.9475 15.114C17.234 14.8275 17.6226 14.6665 18.0278 14.6665H20.1667Z" fill="#D7E9F4"/>
<path d="M18.6395 3.05566H3.36176C2.95672 3.05615 2.5684 3.21727 2.282 3.50368C1.99559 3.79008 1.83447 4.1784 1.83398 4.58344V7.33344H20.1673V4.58344C20.1668 4.1784 20.0057 3.79008 19.7193 3.50368C19.4329 3.21727 19.0446 3.05615 18.6395 3.05566Z" fill="#FB4A34"/>
<path d="M15.8913 6.11092C16.3975 6.11092 16.8079 5.70052 16.8079 5.19425C16.8079 4.68799 16.3975 4.27759 15.8913 4.27759C15.385 4.27759 14.9746 4.68799 14.9746 5.19425C14.9746 5.70052 15.385 6.11092 15.8913 6.11092Z" fill="#DB2E26"/>
<path d="M11.0007 6.11092C11.5069 6.11092 11.9173 5.70052 11.9173 5.19425C11.9173 4.68799 11.5069 4.27759 11.0007 4.27759C10.4944 4.27759 10.084 4.68799 10.084 5.19425C10.084 5.70052 10.4944 6.11092 11.0007 6.11092Z" fill="#DB2E26"/>
<path d="M6.41667 6.11092C6.92293 6.11092 7.33333 5.70052 7.33333 5.19425C7.33333 4.68799 6.92293 4.27759 6.41667 4.27759C5.91041 4.27759 5.5 4.68799 5.5 5.19425C5.5 5.70052 5.91041 6.11092 6.41667 6.11092Z" fill="#DB2E26"/>
<path d="M7.33225 2.74992V3.05547H6.72114V2.74992C6.72114 2.66888 6.68895 2.59116 6.63164 2.53386C6.57434 2.47656 6.49662 2.44436 6.41558 2.44436H6.11003C6.02899 2.44436 5.95127 2.47656 5.89397 2.53386C5.83666 2.59116 5.80447 2.66888 5.80447 2.74992V4.58325C5.80447 4.66429 5.83666 4.74201 5.89397 4.79931C5.95127 4.85662 6.02899 4.88881 6.11003 4.88881H6.41558C6.49662 4.88881 6.57434 4.921 6.63164 4.9783C6.68895 5.03561 6.72114 5.11333 6.72114 5.19436C6.72114 5.2754 6.68895 5.35312 6.63164 5.41042C6.57434 5.46773 6.49662 5.49992 6.41558 5.49992H6.11003C5.86713 5.49919 5.6344 5.40238 5.46265 5.23063C5.29089 5.05888 5.19408 4.82614 5.19336 4.58325V2.74992C5.19408 2.50703 5.29089 2.27429 5.46265 2.10254C5.6344 1.93079 5.86713 1.83398 6.11003 1.83325H6.41558C6.65847 1.83398 6.89121 1.93079 7.06296 2.10254C7.23471 2.27429 7.33152 2.50703 7.33225 2.74992ZM11.9156 2.74992V3.05547H11.3045V2.74992C11.3045 2.66888 11.2723 2.59116 11.215 2.53386C11.1577 2.47656 11.08 2.44436 10.9989 2.44436H10.6934C10.6123 2.44436 10.5346 2.47656 10.4773 2.53386C10.42 2.59116 10.3878 2.66888 10.3878 2.74992V4.58325C10.3878 4.66429 10.42 4.74201 10.4773 4.79931C10.5346 4.85662 10.6123 4.88881 10.6934 4.88881H10.9989C11.08 4.88881 11.1577 4.921 11.215 4.9783C11.2723 5.03561 11.3045 5.11333 11.3045 5.19436C11.3045 5.2754 11.2723 5.35312 11.215 5.41042C11.1577 5.46773 11.08 5.49992 10.9989 5.49992H10.6934C10.4505 5.49919 10.2177 5.40238 10.046 5.23063C9.87423 5.05888 9.77742 4.82614 9.77669 4.58325V2.74992C9.77742 2.50703 9.87423 2.27429 10.046 2.10254C10.2177 1.93079 10.4505 1.83398 10.6934 1.83325H10.9989C11.2418 1.83398 11.4745 1.93079 11.6463 2.10254C11.818 2.27429 11.9149 2.50703 11.9156 2.74992ZM16.8045 2.74992V3.05547H16.1934V2.74992C16.1934 2.66888 16.1612 2.59116 16.1039 2.53386C16.0466 2.47656 15.9688 2.44436 15.8878 2.44436H15.5822C15.5012 2.44436 15.4235 2.47656 15.3662 2.53386C15.3089 2.59116 15.2767 2.66888 15.2767 2.74992V4.58325C15.2767 4.66429 15.3089 4.74201 15.3662 4.79931C15.4235 4.85662 15.5012 4.88881 15.5822 4.88881H15.8878C15.9688 4.88881 16.0466 4.921 16.1039 4.9783C16.1612 5.03561 16.1934 5.11333 16.1934 5.19436C16.1934 5.2754 16.1612 5.35312 16.1039 5.41042C16.0466 5.46773 15.9688 5.49992 15.8878 5.49992H15.5822C15.3394 5.49919 15.1066 5.40238 14.9349 5.23063C14.7631 5.05888 14.6663 4.82614 14.6656 4.58325V2.74992C14.6663 2.50703 14.7631 2.27429 14.9349 2.10254C15.1066 1.93079 15.3394 1.83398 15.5822 1.83325H15.8878C16.1307 1.83398 16.3634 1.93079 16.5352 2.10254C16.7069 2.27429 16.8037 2.50703 16.8045 2.74992Z" fill="#3E4042"/>
<path d="M5.80686 14.9719H3.97352C3.80477 14.9719 3.66797 15.1087 3.66797 15.2775V17.1108C3.66797 17.2796 3.80477 17.4164 3.97352 17.4164H5.80686C5.97561 17.4164 6.11241 17.2796 6.11241 17.1108V15.2775C6.11241 15.1087 5.97561 14.9719 5.80686 14.9719Z" fill="#BAD4E5"/>
<path d="M8.8635 14.9719H7.03016C6.86141 14.9719 6.72461 15.1087 6.72461 15.2775V17.1108C6.72461 17.2796 6.86141 17.4164 7.03016 17.4164H8.8635C9.03225 17.4164 9.16905 17.2796 9.16905 17.1108V15.2775C9.16905 15.1087 9.03225 14.9719 8.8635 14.9719Z" fill="#BAD4E5"/>
<path d="M11.9182 14.9719H10.0849C9.9161 14.9719 9.7793 15.1087 9.7793 15.2775V17.1108C9.7793 17.2796 9.9161 17.4164 10.0849 17.4164H11.9182C12.0869 17.4164 12.2237 17.2796 12.2237 17.1108V15.2775C12.2237 15.1087 12.0869 14.9719 11.9182 14.9719Z" fill="#BAD4E5"/>
<path d="M5.80686 11.9165H3.97352C3.80477 11.9165 3.66797 12.0533 3.66797 12.2221V14.0554C3.66797 14.2241 3.80477 14.3609 3.97352 14.3609H5.80686C5.97561 14.3609 6.11241 14.2241 6.11241 14.0554V12.2221C6.11241 12.0533 5.97561 11.9165 5.80686 11.9165Z" fill="#5ED3F2"/>
<path d="M8.85959 11.9167H7.02626C6.85751 11.9167 6.7207 12.0535 6.7207 12.2223V14.0556C6.7207 14.2244 6.85751 14.3612 7.02626 14.3612H8.85959C9.02835 14.3612 9.16515 14.2244 9.16515 14.0556V12.2223C9.16515 12.0535 9.02835 11.9167 8.85959 11.9167Z" fill="#BAD4E5"/>
<path d="M11.9143 11.9167H10.0809C9.91219 11.9167 9.77539 12.0535 9.77539 12.2223V14.0556C9.77539 14.2244 9.91219 14.3612 10.0809 14.3612H11.9143C12.083 14.3612 12.2198 14.2244 12.2198 14.0556V12.2223C12.2198 12.0535 12.083 11.9167 11.9143 11.9167Z" fill="#BAD4E5"/>
<path d="M14.969 11.9167H13.1356C12.9669 11.9167 12.8301 12.0535 12.8301 12.2223V14.0556C12.8301 14.2244 12.9669 14.3612 13.1356 14.3612H14.969C15.1377 14.3612 15.2745 14.2244 15.2745 14.0556V12.2223C15.2745 12.0535 15.1377 11.9167 14.969 11.9167Z" fill="#BAD4E5"/>
<path d="M11.9143 8.86108H10.0809C9.91219 8.86108 9.77539 8.99789 9.77539 9.16664V11C9.77539 11.1687 9.91219 11.3055 10.0809 11.3055H11.9143C12.083 11.3055 12.2198 11.1687 12.2198 11V9.16664C12.2198 8.99789 12.083 8.86108 11.9143 8.86108Z" fill="#BAD4E5"/>
<path d="M14.9729 8.86084H13.1395C12.9708 8.86084 12.834 8.99764 12.834 9.1664V10.9997C12.834 11.1685 12.9708 11.3053 13.1395 11.3053H14.9729C15.1416 11.3053 15.2784 11.1685 15.2784 10.9997V9.1664C15.2784 8.99764 15.1416 8.86084 14.9729 8.86084Z" fill="#67AAE6"/>
<path d="M18.0276 8.86084H16.1942C16.0255 8.86084 15.8887 8.99764 15.8887 9.1664V10.9997C15.8887 11.1685 16.0255 11.3053 16.1942 11.3053H18.0276C18.1963 11.3053 18.3331 11.1685 18.3331 10.9997V9.1664C18.3331 8.99764 18.1963 8.86084 18.0276 8.86084Z" fill="#67AAE6"/>
</svg>
