<svg width="64" height="64" viewBox="0 0 64 64" fill="none" xmlns="http://www.w3.org/2000/svg">
<path d="M18.0667 51.1583H16.325C12.4799 51.1583 9.35829 48.0363 9.35829 44.1916C9.35829 41.3083 11.6996 38.9666 14.5833 38.9666H12.8417C8.99666 38.9667 5.875 35.8447 5.875 32C5.875 28.1553 8.99666 25.0333 12.8417 25.0333H14.5834C11.6997 25.0333 9.3584 22.6916 9.3584 19.8084C9.3584 15.9636 12.4801 12.8417 16.3251 12.8417H18.0668M45.9332 51.1583H47.6749C51.5199 51.1583 54.6416 48.0363 54.6416 44.1916C54.6416 41.3083 52.3003 38.9666 49.4166 38.9666H51.1583C55.0033 38.9666 58.125 35.8446 58.125 31.9999C58.125 28.1552 55.0033 25.0332 51.1583 25.0332H49.4166C52.3003 25.0332 54.6416 22.6915 54.6416 19.8082C54.6416 15.9635 51.5199 12.8416 47.6749 12.8416H45.9332" stroke="#165EF0" stroke-width="2.60165" stroke-miterlimit="10" stroke-linecap="round" stroke-linejoin="round"/>
<path d="M21.5497 16.325C19.6272 16.325 18.0664 14.7644 18.0664 12.8417C18.0664 8.99698 21.1881 5.875 25.033 5.875C28.8779 5.875 31.9997 8.99698 31.9997 12.8417M31.9997 12.8417C31.9997 8.99698 35.1213 5.875 38.9664 5.875C42.8114 5.875 45.9331 8.99698 45.9331 12.8417C45.9331 14.7645 44.3723 16.325 42.4498 16.325M31.9997 12.8417V19.8083M21.5497 47.6749C19.6272 47.6749 18.0664 49.2355 18.0664 51.1582C18.0664 55.0029 21.1881 58.1249 25.0331 58.1249C28.8781 58.1249 31.9997 55.0029 31.9997 51.1582M31.9997 51.1582C31.9997 55.0029 35.1213 58.1249 38.9664 58.1249C42.8114 58.1249 45.9331 55.0029 45.9331 51.1582C45.9331 49.2354 44.3723 47.6749 42.4498 47.6749M31.9997 51.1582V44.1916" stroke="black" stroke-width="2.60165" stroke-miterlimit="10" stroke-linecap="round" stroke-linejoin="round"/>
<path d="M23.291 37.2249V30.2582C23.291 29.8008 23.3811 29.3479 23.5561 28.9253C23.7312 28.5028 23.9878 28.1189 24.3113 27.7955C24.6346 27.4719 25.0186 27.2151 25.4412 27.04C25.8638 26.8649 26.3168 26.7748 26.7743 26.7749C27.2318 26.7748 27.6848 26.8649 28.1074 27.04C28.5301 27.2151 28.914 27.4719 29.2373 27.7955C29.5608 28.1189 29.8174 28.5028 29.9925 28.9253C30.1675 29.3479 30.2576 29.8008 30.2576 30.2582V37.2249M23.291 33.7416H30.2576M35.4826 26.7749H40.7076M35.4826 37.2249H40.7076M38.0951 26.7749V37.2249" stroke="#FFBB17" stroke-width="2.60165" stroke-miterlimit="10" stroke-linecap="round" stroke-linejoin="round"/>
</svg>
