<svg width="524" height="107" viewBox="0 0 524 107" fill="none" xmlns="http://www.w3.org/2000/svg">
<path d="M0 27.52C0 16.741 0 11.3516 2.49075 7.42677C3.75274 5.43819 5.43819 3.75274 7.42677 2.49075C11.3516 0 16.741 0 27.52 0H496.48C507.259 0 512.648 0 516.573 2.49075C518.562 3.75274 520.247 5.43819 521.509 7.42677C524 11.3516 524 16.741 524 27.52V107H0V27.52Z" fill="black"/>
<path d="M71.4102 42.864H68.9182V40.54L74.1822 35.696H65.6702V32.532H78.6622V35.388L73.6782 39.98C76.8142 40.596 79.2502 42.892 79.2502 46.504C79.2502 50.704 75.9742 53.364 71.8302 53.364C67.8262 53.364 64.7182 50.9 64.7182 46.476H68.2462C68.2462 48.828 69.7022 50.172 71.8862 50.172C74.1262 50.172 75.6102 48.716 75.6102 46.448C75.6102 44.376 74.2662 42.864 71.4102 42.864ZM81.3036 42.808C81.3036 36.452 84.7196 32.14 89.9556 32.14C95.1916 32.14 98.6356 36.452 98.6356 42.808C98.6356 49.136 95.3876 53.364 89.9556 53.364C84.5236 53.364 81.3036 49.136 81.3036 42.808ZM84.8316 42.808C84.8316 47.54 86.7356 50.2 89.9556 50.2C93.2036 50.2 95.1076 47.54 95.1076 42.808C95.1076 37.964 93.2036 35.304 89.9556 35.304C86.7356 35.304 84.8316 37.964 84.8316 42.808Z" fill="white"/>
<path d="M71.436 81H68.384V70.976H71.408C74.432 70.976 76.448 72.992 76.448 75.988C76.448 78.984 74.446 81 71.436 81ZM71.366 71.9H69.392V80.076H71.394C73.844 80.076 75.412 78.48 75.412 75.988C75.412 73.482 73.844 71.9 71.366 71.9ZM80.0048 81.168C78.5628 81.168 77.7088 80.356 77.7088 79.166C77.7088 77.92 78.6608 77.136 80.2428 77.01L82.4828 76.828V76.604C82.4828 75.274 81.6848 74.854 80.6908 74.854C79.5148 74.854 78.8148 75.386 78.8148 76.296H77.9328C77.9328 74.924 79.0528 74.042 80.7188 74.042C82.2868 74.042 83.4348 74.826 83.4348 76.618V81H82.6228L82.4968 79.81C82.0768 80.664 81.1528 81.168 80.0048 81.168ZM80.2288 80.384C81.6568 80.384 82.4828 79.39 82.4828 77.92V77.556L80.4808 77.71C79.2068 77.822 78.6888 78.382 78.6888 79.138C78.6888 79.964 79.3048 80.384 80.2288 80.384ZM84.5368 83.954V83.156H85.2788C85.8668 83.156 86.4548 83.114 86.7908 82.204L87.0848 81.406L84.3408 74.224H85.3628L87.5468 80.132L89.6888 74.224H90.6828L87.5748 82.554C87.1828 83.618 86.5248 84.052 85.5588 84.052C85.1528 84.052 84.8448 84.024 84.5368 83.954ZM91.1977 79.096H92.1217C92.1217 79.88 92.7097 80.37 93.6617 80.37C94.7117 80.37 95.3277 79.922 95.3277 79.194C95.3277 78.634 95.0477 78.312 94.2497 78.116L93.0877 77.822C91.9117 77.528 91.3377 76.912 91.3377 75.988C91.3377 74.798 92.3317 74.042 93.7877 74.042C95.2157 74.042 96.1397 74.826 96.1817 76.086H95.2437C95.2157 75.302 94.6697 74.84 93.7597 74.84C92.8077 74.84 92.2757 75.246 92.2757 75.974C92.2757 76.492 92.6397 76.856 93.3817 77.038L94.5437 77.332C95.7197 77.626 96.2517 78.172 96.2517 79.152C96.2517 80.37 95.2157 81.168 93.6757 81.168C92.1497 81.168 91.1977 80.356 91.1977 79.096Z" fill="white"/>
<line opacity="0.1" x1="142.5" y1="28" x2="142.5" y2="79" stroke="white"/>
<path d="M193.883 35.752H189.403V32.532H197.327V53H193.883V35.752ZM206.859 42.864H204.367V40.54L209.631 35.696H201.119V32.532H214.111V35.388L209.127 39.98C212.263 40.596 214.699 42.892 214.699 46.504C214.699 50.704 211.423 53.364 207.279 53.364C203.275 53.364 200.167 50.9 200.167 46.476H203.695C203.695 48.828 205.151 50.172 207.335 50.172C209.575 50.172 211.059 48.716 211.059 46.448C211.059 44.376 209.715 42.864 206.859 42.864Z" fill="white"/>
<path d="M185.726 81H184.718V70.976H185.726V75.442H191.144V70.976H192.138V81H191.144V76.38H185.726V81ZM193.903 77.612C193.903 75.54 195.359 74.042 197.347 74.042C199.335 74.042 200.791 75.54 200.791 77.612C200.791 79.67 199.335 81.168 197.347 81.168C195.359 81.168 193.903 79.67 193.903 77.612ZM194.883 77.598C194.883 79.194 195.891 80.3 197.347 80.3C198.789 80.3 199.811 79.194 199.811 77.598C199.811 76.03 198.789 74.91 197.347 74.91C195.891 74.91 194.883 76.03 194.883 77.598ZM206.932 74.224H207.898V81H207.058L206.932 79.852C206.554 80.636 205.616 81.168 204.552 81.168C202.956 81.168 202.088 80.076 202.088 78.424V74.21H203.068V78.116C203.068 79.726 203.782 80.3 204.86 80.3C206.162 80.3 206.932 79.432 206.932 77.822V74.224ZM213.452 74.14V75.008H212.92C211.674 75.008 210.876 75.848 210.876 77.136V81H209.91V74.224H210.82L210.89 75.274C211.156 74.546 211.87 74.07 212.822 74.07C213.032 74.07 213.214 74.084 213.452 74.14ZM214.163 79.096H215.087C215.087 79.88 215.675 80.37 216.627 80.37C217.677 80.37 218.293 79.922 218.293 79.194C218.293 78.634 218.013 78.312 217.215 78.116L216.053 77.822C214.877 77.528 214.303 76.912 214.303 75.988C214.303 74.798 215.297 74.042 216.753 74.042C218.181 74.042 219.105 74.826 219.147 76.086H218.209C218.181 75.302 217.635 74.84 216.725 74.84C215.773 74.84 215.241 75.246 215.241 75.974C215.241 76.492 215.605 76.856 216.347 77.038L217.509 77.332C218.685 77.626 219.217 78.172 219.217 79.152C219.217 80.37 218.181 81.168 216.641 81.168C215.115 81.168 214.163 80.356 214.163 79.096Z" fill="white"/>
<line opacity="0.1" x1="262.5" y1="28" x2="262.5" y2="79" stroke="white"/>
<path d="M307.563 38.552L311.987 32.532H316.075L311.175 39.056C311.679 38.916 312.211 38.832 312.715 38.832C316.943 38.832 319.799 41.8 319.799 45.944C319.799 50.312 316.551 53.364 312.183 53.364C307.759 53.364 304.455 50.116 304.455 45.916C304.455 43.452 305.267 41.66 307.563 38.552ZM308.123 45.944C308.123 48.436 309.775 50.172 312.183 50.172C314.507 50.172 316.187 48.436 316.187 45.944C316.187 43.48 314.535 41.772 312.183 41.772C309.747 41.772 308.123 43.48 308.123 45.944ZM322.015 42.808C322.015 36.452 325.431 32.14 330.667 32.14C335.903 32.14 339.347 36.452 339.347 42.808C339.347 49.136 336.099 53.364 330.667 53.364C325.235 53.364 322.015 49.136 322.015 42.808ZM325.543 42.808C325.543 47.54 327.447 50.2 330.667 50.2C333.915 50.2 335.819 47.54 335.819 42.808C335.819 37.964 333.915 35.304 330.667 35.304C327.447 35.304 325.543 37.964 325.543 42.808Z" fill="white"/>
<path d="M300.266 81H299.272V70.976H300.266L303.92 79.81L307.574 70.976H308.582V81H307.588V76.24C307.588 74.49 307.616 73.72 307.672 73.034L304.41 81H303.444L300.182 73.076C300.238 73.454 300.266 74.56 300.266 76.086V81ZM311.282 72.362C310.89 72.362 310.568 72.04 310.568 71.648C310.568 71.256 310.89 70.92 311.282 70.92C311.674 70.92 312.01 71.256 312.01 71.648C312.01 72.04 311.674 72.362 311.282 72.362ZM310.806 81V74.224H311.772V81H310.806ZM314.752 81H313.786V74.224H314.626L314.766 75.4C315.214 74.532 316.11 74.042 317.09 74.042C318.952 74.042 319.722 75.148 319.722 76.856V81H318.756V77.066C318.756 75.484 318.042 74.924 316.922 74.924C315.536 74.924 314.752 75.932 314.752 77.458V81ZM326.408 74.224H327.374V81H326.534L326.408 79.852C326.03 80.636 325.092 81.168 324.028 81.168C322.432 81.168 321.564 80.076 321.564 78.424V74.21H322.544V78.116C322.544 79.726 323.258 80.3 324.336 80.3C325.638 80.3 326.408 79.432 326.408 77.822V74.224ZM330.94 81H329.988V75.036H328.63V74.224H329.988V72.082H330.94V74.224H332.298V75.036H330.94V81ZM336.329 81.168C334.341 81.168 333.011 79.74 333.011 77.612C333.011 75.498 334.327 74.042 336.259 74.042C338.093 74.042 339.339 75.344 339.339 77.262V77.738H333.949C334.019 79.39 334.887 80.342 336.343 80.342C337.449 80.342 338.163 79.866 338.415 78.97H339.339C338.975 80.398 337.925 81.168 336.329 81.168ZM336.259 74.868C334.985 74.868 334.145 75.708 333.977 77.038H338.373C338.373 75.736 337.533 74.868 336.259 74.868ZM340.31 79.096H341.234C341.234 79.88 341.822 80.37 342.774 80.37C343.824 80.37 344.44 79.922 344.44 79.194C344.44 78.634 344.16 78.312 343.362 78.116L342.2 77.822C341.024 77.528 340.45 76.912 340.45 75.988C340.45 74.798 341.444 74.042 342.9 74.042C344.328 74.042 345.252 74.826 345.294 76.086H344.356C344.328 75.302 343.782 74.84 342.872 74.84C341.92 74.84 341.388 75.246 341.388 75.974C341.388 76.492 341.752 76.856 342.494 77.038L343.656 77.332C344.832 77.626 345.364 78.172 345.364 79.152C345.364 80.37 344.328 81.168 342.788 81.168C341.262 81.168 340.31 80.356 340.31 79.096Z" fill="white"/>
<line opacity="0.1" x1="382.5" y1="28" x2="382.5" y2="79" stroke="white"/>
<path d="M441.689 49.108H439.197V53H435.809V49.108H425.421V45.972L434.689 32.532H439.197V45.972H441.689V49.108ZM429.229 45.972H435.809V36.396L429.229 45.972ZM450.834 53.336C446.55 53.336 443.722 50.592 443.722 46.448H447.278C447.278 48.772 448.65 50.144 450.918 50.144C453.326 50.144 454.866 48.576 454.866 46.084C454.866 43.704 453.438 42.08 450.974 42.08C449.406 42.08 447.978 42.864 447.25 43.928L444.086 43.256L446.606 32.532H457.274V35.836H449.182L448.09 40.092C449.07 39.448 450.302 39.084 451.702 39.084C455.79 39.084 458.506 41.856 458.506 45.888C458.506 50.312 455.398 53.336 450.834 53.336Z" fill="white"/>
<path d="M419.34 73.58C419.34 71.9 420.684 70.794 422.7 70.794C424.506 70.794 425.696 71.802 425.85 73.482H424.828C424.716 72.348 423.946 71.704 422.686 71.704C421.272 71.704 420.348 72.432 420.348 73.566C420.348 74.448 420.866 75.008 421.916 75.274L423.638 75.694C425.206 76.072 426.018 76.968 426.018 78.326C426.018 80.062 424.674 81.168 422.602 81.168C420.656 81.168 419.34 80.146 419.214 78.508H420.25C420.306 79.558 421.23 80.244 422.602 80.244C424.072 80.244 425.01 79.53 425.01 78.382C425.01 77.486 424.506 76.898 423.428 76.646L421.734 76.226C420.166 75.848 419.34 74.952 419.34 73.58ZM430.462 81.168C428.474 81.168 427.144 79.74 427.144 77.612C427.144 75.498 428.46 74.042 430.392 74.042C432.226 74.042 433.472 75.344 433.472 77.262V77.738H428.082C428.152 79.39 429.02 80.342 430.476 80.342C431.582 80.342 432.296 79.866 432.548 78.97H433.472C433.108 80.398 432.058 81.168 430.462 81.168ZM430.392 74.868C429.118 74.868 428.278 75.708 428.11 77.038H432.506C432.506 75.736 431.666 74.868 430.392 74.868ZM434.541 77.626C434.541 75.498 435.843 74.042 437.817 74.042C439.385 74.042 440.533 74.952 440.799 76.352H439.833C439.581 75.414 438.769 74.896 437.831 74.896C436.459 74.896 435.493 75.946 435.493 77.612C435.493 79.222 436.389 80.3 437.761 80.3C438.769 80.3 439.581 79.74 439.847 78.872H440.827C440.505 80.258 439.301 81.168 437.761 81.168C435.843 81.168 434.541 79.754 434.541 77.626ZM441.814 77.612C441.814 75.54 443.27 74.042 445.258 74.042C447.246 74.042 448.702 75.54 448.702 77.612C448.702 79.67 447.246 81.168 445.258 81.168C443.27 81.168 441.814 79.67 441.814 77.612ZM442.794 77.598C442.794 79.194 443.802 80.3 445.258 80.3C446.7 80.3 447.722 79.194 447.722 77.598C447.722 76.03 446.7 74.91 445.258 74.91C443.802 74.91 442.794 76.03 442.794 77.598ZM451.213 81H450.247V74.224H451.087L451.227 75.4C451.675 74.532 452.571 74.042 453.551 74.042C455.413 74.042 456.183 75.148 456.183 76.856V81H455.217V77.066C455.217 75.484 454.503 74.924 453.383 74.924C451.997 74.924 451.213 75.932 451.213 77.458V81ZM460.769 81.168C458.795 81.168 457.633 79.656 457.633 77.626C457.633 75.582 458.795 74.042 460.811 74.042C461.931 74.042 462.827 74.532 463.303 75.512V70.794H464.269V81H463.429L463.331 79.614C462.855 80.664 461.903 81.168 460.769 81.168ZM460.937 80.286C462.421 80.286 463.289 79.166 463.289 77.598C463.289 76.044 462.421 74.91 460.937 74.91C459.467 74.91 458.613 76.044 458.613 77.598C458.613 79.166 459.467 80.286 460.937 80.286Z" fill="white"/>
</svg>
