<svg width="36" height="36" viewBox="0 0 36 36" fill="none" xmlns="http://www.w3.org/2000/svg">
<rect width="36" height="36" fill="#AAA9A9"/>
<g id="6" clip-path="url(#clip0_292_1877)">
<rect width="1440" height="3759" transform="translate(-860 -1144)" fill="#FAFAFA"/>
<g id="solution">
<rect width="1440" height="981" transform="translate(-860 -293)" fill="white"/>
<g id="Frame 1618872418">
<g id="Frame 1618872417">
<mask id="path-1-inside-1_292_1877" fill="white">
<path d="M-22 -106H502V275.48C502 286.259 502 291.648 499.509 295.573C498.247 297.562 496.562 299.247 494.573 300.509C490.648 303 485.259 303 474.48 303H5.52C-5.25895 303 -10.6484 303 -14.5732 300.509C-16.5618 299.247 -18.2473 297.562 -19.5092 295.573C-22 291.648 -22 286.259 -22 275.48V-106Z"/>
</mask>
<path d="M-22 -106H502H-22ZM503 287C503 296.389 495.389 304 486 304H-6C-15.3888 304 -23 296.389 -23 287H-21C-21 295.284 -14.2843 302 -6 302H486C494.284 302 501 295.284 501 287H503ZM-6 304C-15.3888 304 -23 296.389 -23 287V-106H-21V287C-21 295.284 -14.2843 302 -6 302V304ZM503 -106V287C503 296.389 495.389 304 486 304V302C494.284 302 501 295.284 501 287V-106H503Z" fill="#EAEAEA" mask="url(#path-1-inside-1_292_1877)"/>
<g id="Frame 1618872414">
<g id="time Icon">
<path id="Vector" d="M4.5 18C4.5 19.7728 4.84919 21.5283 5.52763 23.1662C6.20606 24.8041 7.20047 26.2923 8.45406 27.5459C9.70765 28.7995 11.1959 29.7939 12.8338 30.4724C14.4717 31.1508 16.2272 31.5 18 31.5C19.7728 31.5 21.5283 31.1508 23.1662 30.4724C24.8041 29.7939 26.2923 28.7995 27.5459 27.5459C28.7995 26.2923 29.7939 24.8041 30.4724 23.1662C31.1508 21.5283 31.5 19.7728 31.5 18C31.5 16.2272 31.1508 14.4717 30.4724 12.8338C29.7939 11.1959 28.7995 9.70765 27.5459 8.45406C26.2923 7.20047 24.8041 6.20607 23.1662 5.52763C21.5283 4.84919 19.7728 4.5 18 4.5C16.2272 4.5 14.4717 4.84919 12.8338 5.52763C11.1959 6.20607 9.70765 7.20047 8.45406 8.45406C7.20047 9.70765 6.20606 11.1959 5.52763 12.8338C4.84919 14.4717 4.5 16.2272 4.5 18Z" stroke="#165EF0" stroke-width="2.16" stroke-linecap="round" stroke-linejoin="round"/>
<path id="Vector_2" d="M18 18L21 22.5" stroke="#165EF0" stroke-width="2.16" stroke-linecap="round" stroke-linejoin="round"/>
<path id="Vector_3" d="M18 10.5003V18.0003" stroke="#165EF0" stroke-width="2.16" stroke-linecap="round" stroke-linejoin="round"/>
</g>
</g>
</g>
</g>
</g>
</g>
<defs>
<clipPath id="clip0_292_1877">
<rect width="1440" height="3759" fill="white" transform="translate(-860 -1144)"/>
</clipPath>
</defs>
</svg>
