<svg width="64" height="64" viewBox="0 0 64 64" fill="none" xmlns="http://www.w3.org/2000/svg">
<path d="M39.6821 28.7526L39.2355 29.1996C39.1785 29.2559 39.1186 29.3092 39.0562 29.3593C39.5704 30.511 39.8592 31.7851 39.8592 33.1259C39.8592 38.237 35.7007 42.3952 30.5894 42.3952C25.4777 42.3952 21.3193 38.237 21.3193 33.1259C21.3193 28.0152 25.4777 23.8574 30.5894 23.8574C31.6541 23.8574 32.6761 24.0402 33.6294 24.3718V24.3715C33.7202 24.2272 33.8262 24.0835 33.9714 23.9373L34.2008 23.7076C33.0483 23.2651 31.8242 23.0385 30.5896 23.0391C25.0188 23.0395 20.5014 27.5556 20.5014 33.1256C20.5014 38.6964 25.0188 43.2125 30.5894 43.2125C36.1608 43.2125 40.6772 38.6963 40.6772 33.1256C40.6771 31.5592 40.32 30.0755 39.6821 28.7526Z" fill="#FFBB17" stroke="#FFBB17" stroke-width="0.516006"/>
<path d="M36.7723 29.9844H35.8554C36.3218 30.8373 36.5873 31.8146 36.5873 32.853C36.5873 36.1602 33.8966 38.8506 30.5894 38.8506C27.282 38.8506 24.5912 36.1601 24.5912 32.853C24.5912 29.5463 27.2819 26.8559 30.5894 26.8559C31.5191 26.8559 32.4004 27.0685 33.1866 27.4479V26.5519C32.386 26.2216 31.509 26.038 30.5894 26.038C26.8247 26.038 23.773 29.0895 23.773 32.8531C23.773 36.6166 26.8247 39.6686 30.5894 39.6686C34.3532 39.6686 37.4055 36.6166 37.4055 32.8531C37.4055 31.8279 37.1775 30.8565 36.7723 29.9844Z" fill="#FFBB17" stroke="#FFBB17" stroke-width="0.516006"/>
<path d="M42.668 23.8113C42.6042 23.6876 42.5012 23.6011 42.3992 23.549C42.2965 23.4964 42.1915 23.4717 42.0841 23.4606L40.1372 23.2665C40.0976 23.2635 40.0352 23.2361 39.9864 23.1862C39.9365 23.1374 39.9091 23.075 39.9064 23.0354L39.7114 21.0878C39.6962 20.9454 39.6585 20.8038 39.5593 20.672C39.5063 20.6021 39.4385 20.5447 39.3608 20.5039C39.2792 20.4621 39.1889 20.4402 39.0972 20.4402C38.9836 20.4405 38.8827 20.4724 38.7978 20.5161C38.7129 20.5606 38.6408 20.6175 38.5757 20.6823L34.6462 24.6118C34.4865 24.7737 34.3728 24.9685 34.2855 25.1767C34.2003 25.3858 34.1426 25.6041 34.1409 25.8316V28.0757C34.1414 28.2295 34.1811 28.3727 34.2459 28.5013L32.555 30.2425C32.0072 29.8298 31.3285 29.5816 30.5897 29.5816C28.7825 29.5816 27.3181 31.0466 27.3181 32.853C27.3181 34.6594 28.7825 36.1243 30.5897 36.1243C32.3961 36.1243 33.8614 34.6594 33.8614 32.853C33.8614 32.0801 33.5916 31.3709 33.143 30.811L34.8944 29.0078C34.9605 29.0221 35.0279 29.0296 35.0956 29.03H37.341C37.5685 29.0284 37.7869 28.9709 37.9956 28.8858C38.2042 28.7981 38.3989 28.6845 38.561 28.5248L42.4898 24.5964C42.5546 24.5313 42.6112 24.4592 42.6557 24.374C42.6994 24.2891 42.7317 24.1883 42.7317 24.0749C42.7322 23.9832 42.7103 23.8927 42.668 23.8113ZM30.5897 35.3068C29.2365 35.3068 28.1357 34.2063 28.1357 32.8533C28.1357 31.5006 29.2364 30.3998 30.5897 30.3998C31.1058 30.3998 31.5847 30.5609 31.9803 30.8342L30.2963 32.5687C30.1389 32.7306 30.1428 32.9896 30.3047 33.1469C30.4666 33.3042 30.7259 33.3004 30.8832 33.1385L32.5662 31.4055C32.8647 31.8118 33.0434 32.3114 33.0434 32.8532C33.0434 34.2063 31.9427 35.3068 30.5897 35.3068ZM34.9594 27.7675V25.832C34.9578 25.7598 34.9873 25.6185 35.0418 25.49C35.0937 25.3609 35.1728 25.2402 35.2252 25.1903L38.9302 21.4856L39.0932 23.1174C39.1046 23.2272 39.136 23.3289 39.1778 23.4241L34.9594 27.7675ZM37.9829 27.947C37.9324 27.9991 37.8123 28.078 37.6832 28.1303C37.5546 28.1848 37.4134 28.2144 37.3412 28.2128H35.6668L39.7588 23.999C39.8516 24.0387 39.9495 24.0687 40.056 24.0801L41.687 24.2428L37.9829 27.947Z" fill="#FFBB17" stroke="#FFBB17" stroke-width="0.516006"/>
<path d="M42.8757 14.92H18.9824C16.1547 14.92 13.8624 17.2123 13.8624 20.04V43.9334C13.8624 46.7611 16.1547 49.0534 18.9824 49.0534H42.8757C45.7034 49.0534 47.9957 46.7611 47.9957 43.9334V20.04C47.9957 17.2123 45.7034 14.92 42.8757 14.92Z" stroke="black" stroke-width="1.3"/>
<path d="M26.9646 49.0533V61H19.5691M36.6091 49.0533V54.4578H44.5735" stroke="black" stroke-width="1.3"/>
<path d="M47.9957 27.5911H53.4002V19.6267M47.9957 37.28H61.9335V39.5555" stroke="black" stroke-width="1.3"/>
<path d="M36.178 15.2045V3.2578H43.5735M26.5335 15.2045V9.80002L18.5691 9.80002" stroke="black" stroke-width="1.3"/>
<path d="M14.1469 28.0223H2.20018L2.20018 20.6267M14.1469 36.6667H8.74241V44.6312" stroke="black" stroke-width="1.3"/>
<circle cx="46" cy="55" r="1.25" stroke="#165EF0" stroke-width="1.5"/>
<circle cx="62" cy="41" r="1.25" stroke="#165EF0" stroke-width="1.5"/>
<circle cx="53" cy="18" r="1.25" stroke="#165EF0" stroke-width="1.5"/>
<circle cx="45" cy="3" r="1.25" stroke="#165EF0" stroke-width="1.5"/>
<circle cx="17" cy="10" r="1.25" stroke="#165EF0" stroke-width="1.5"/>
<circle cx="2" cy="19" r="1.25" stroke="#165EF0" stroke-width="1.5"/>
<circle cx="8.57129" cy="46" r="1.25" stroke="#165EF0" stroke-width="1.5"/>
<circle cx="19" cy="61" r="1.25" stroke="#165EF0" stroke-width="1.5"/>
</svg>
