<svg width="40" height="40" viewBox="0 0 40 40" fill="none" xmlns="http://www.w3.org/2000/svg">
<rect width="40" height="39.25" rx="10" fill="#F1F7FD"/>
<path d="M22.8805 18.4073L22.713 18.5749C22.6917 18.596 22.6692 18.616 22.6458 18.6348C22.8386 19.0667 22.9469 19.5444 22.9469 20.0472C22.9469 21.9639 21.3875 23.5232 19.4707 23.5232C17.5539 23.5232 15.9945 21.9639 15.9945 20.0472C15.9945 18.1307 17.5539 16.5715 19.4707 16.5715C19.87 16.5715 20.2533 16.6401 20.6107 16.7645V16.7643C20.6448 16.7102 20.6846 16.6563 20.739 16.6015L20.825 16.5154C20.3928 16.3494 19.9338 16.2644 19.4708 16.2647C17.3818 16.2648 15.6877 17.9584 15.6877 20.0471C15.6877 22.1362 17.3818 23.8297 19.4708 23.8297C21.56 23.8297 23.2537 22.1361 23.2537 20.0471C23.2537 19.4597 23.1197 18.9033 22.8805 18.4073Z" fill="#FFBB17" stroke="#FFBB17" stroke-width="0.193502"/>
<path d="M21.7895 18.8692H21.4456C21.6205 19.189 21.7201 19.5555 21.7201 19.9449C21.7201 21.1851 20.7111 22.194 19.4709 22.194C18.2306 22.194 17.2216 21.1851 17.2216 19.9449C17.2215 18.7049 18.2306 17.696 19.4709 17.696C19.8195 17.696 20.15 17.7757 20.4448 17.918V17.582C20.1446 17.4581 19.8157 17.3893 19.4709 17.3893C18.0591 17.3893 16.9147 18.5336 16.9147 19.9449C16.9147 21.3563 18.0591 22.5008 19.4709 22.5008C20.8823 22.5008 22.0269 21.3563 22.0269 19.9449C22.0269 19.5605 21.9414 19.1962 21.7895 18.8692Z" fill="#FFBB17" stroke="#FFBB17" stroke-width="0.193502"/>
<path d="M24.0003 16.5543C23.9764 16.5079 23.9378 16.4754 23.8995 16.4559C23.861 16.4362 23.8216 16.4269 23.7814 16.4228L23.0513 16.3499C23.0364 16.3488 23.013 16.3385 22.9947 16.3198C22.976 16.3015 22.9657 16.2782 22.9647 16.2633L22.8916 15.5329C22.8859 15.4795 22.8718 15.4265 22.8346 15.377C22.8147 15.3508 22.7893 15.3293 22.7601 15.314C22.7295 15.2983 22.6956 15.2901 22.6613 15.2901C22.6186 15.2902 22.5808 15.3022 22.549 15.3186C22.5172 15.3352 22.4901 15.3566 22.4657 15.3809L20.9921 16.8545C20.9322 16.9152 20.8896 16.9882 20.8569 17.0663C20.8249 17.1447 20.8033 17.2266 20.8027 17.3119V18.1534C20.8029 18.2111 20.8177 18.2648 20.842 18.313L20.2079 18.966C20.0025 18.8112 19.748 18.7181 19.471 18.7181C18.7932 18.7181 18.2441 19.2675 18.2441 19.9449C18.2441 20.6223 18.7932 21.1716 19.471 21.1716C20.1484 21.1716 20.6978 20.6223 20.6978 19.9449C20.6978 19.6551 20.5967 19.3891 20.4284 19.1791L21.0852 18.5029C21.11 18.5083 21.1353 18.5111 21.1607 18.5113H22.0027C22.088 18.5107 22.1699 18.4891 22.2482 18.4572C22.3264 18.4243 22.3994 18.3817 22.4602 18.3218L23.9335 16.8487C23.9578 16.8242 23.979 16.7972 23.9957 16.7653C24.0121 16.7334 24.0242 16.6956 24.0242 16.6531C24.0244 16.6187 24.0162 16.5848 24.0003 16.5543ZM19.471 20.8651C18.9635 20.8651 18.5507 20.4524 18.5507 19.945C18.5507 19.4378 18.9635 19.0249 19.471 19.0249C19.6645 19.0249 19.8441 19.0854 19.9924 19.1879L19.3609 19.8383C19.3019 19.899 19.3033 19.9961 19.3641 20.0551C19.4248 20.1141 19.522 20.1127 19.581 20.0519L20.2121 19.4021C20.3241 19.5545 20.3911 19.7418 20.3911 19.945C20.3911 20.4524 19.9783 20.8651 19.471 20.8651ZM21.1096 18.0378V17.312C21.109 17.285 21.1201 17.232 21.1405 17.1838C21.1599 17.1354 21.1896 17.0901 21.2093 17.0714L22.5986 15.6821L22.6598 16.294C22.664 16.3352 22.6758 16.3734 22.6915 16.409L21.1096 18.0378ZM22.2434 18.1051C22.2245 18.1247 22.1794 18.1543 22.131 18.1739C22.0828 18.1943 22.0298 18.2054 22.0028 18.2048H21.3749L22.9094 16.6247C22.9442 16.6395 22.9809 16.6508 23.0208 16.6551L23.6324 16.7161L22.2434 18.1051Z" fill="#FFBB17" stroke="#FFBB17" stroke-width="0.193502"/>
<path d="M24.0784 13.22H15.1184C14.058 13.22 13.1984 14.0796 13.1984 15.14V24.1C13.1984 25.1604 14.058 26.02 15.1184 26.02H24.0784C25.1388 26.02 25.9984 25.1604 25.9984 24.1V15.14C25.9984 14.0796 25.1388 13.22 24.0784 13.22Z" stroke="black" stroke-width="0.4875"/>
<path d="M18.1117 26.02V30.5H15.3383M21.7283 26.02V28.0467H24.715" stroke="black" stroke-width="0.4875"/>
<path d="M25.9984 17.9717H28.025V14.985M25.9984 21.605H31.225V22.4583" stroke="black" stroke-width="0.4875"/>
<path d="M21.5668 13.3267V8.84668H24.3401M17.9501 13.3267V11.3H14.9635" stroke="black" stroke-width="0.4875"/>
<path d="M13.3051 18.1333H8.82512V15.36M13.3051 21.375H11.2784L11.2784 24.3617" stroke="black" stroke-width="0.4875"/>
<circle cx="25.25" cy="28.25" r="0.46875" stroke="#165EF0" stroke-width="0.5625"/>
<circle cx="31.25" cy="23" r="0.46875" stroke="#165EF0" stroke-width="0.5625"/>
<circle cx="27.875" cy="14.375" r="0.46875" stroke="#165EF0" stroke-width="0.5625"/>
<circle cx="24.875" cy="8.75" r="0.46875" stroke="#165EF0" stroke-width="0.5625"/>
<circle cx="14.375" cy="11.375" r="0.46875" stroke="#165EF0" stroke-width="0.5625"/>
<circle cx="8.75" cy="14.75" r="0.46875" stroke="#165EF0" stroke-width="0.5625"/>
<circle cx="11.2142" cy="24.875" r="0.46875" stroke="#165EF0" stroke-width="0.5625"/>
<circle cx="15.125" cy="30.5" r="0.46875" stroke="#165EF0" stroke-width="0.5625"/>
</svg>
