<svg width="66" height="28" viewBox="0 0 66 28" fill="none" xmlns="http://www.w3.org/2000/svg">
<path d="M2.38001 21.5673V27.5054H0.492188V12.8375H5.49206C6.76205 12.8375 7.83754 13.2609 8.72997 14.1075C9.63383 14.9542 10.0801 15.9839 10.0801 17.1967C10.0801 18.4438 9.63383 19.4735 8.72997 20.3087C7.86042 21.144 6.7735 21.5558 5.49206 21.5558H2.38001V21.5673ZM2.38001 14.6453V19.771H5.53783C6.29296 19.771 6.91079 19.5193 7.40277 19.0159C7.90619 18.5124 8.1579 17.906 8.1579 17.2081C8.1579 16.5216 7.90619 15.9267 7.40277 15.4233C6.91079 14.9084 6.29296 14.6453 5.53783 14.6453H2.38001Z" fill="#777677"/>
<path d="M15.1259 17.1397C16.5218 17.1397 17.6201 17.5173 18.421 18.261C19.2219 19.0046 19.6338 20.0229 19.6338 21.3272V27.517H17.8261V26.1212H17.746C16.968 27.2653 15.9268 27.8374 14.6339 27.8374C13.5241 27.8374 12.5974 27.5056 11.8537 26.8534C11.11 26.2013 10.7324 25.3775 10.7324 24.3935C10.7324 23.3524 11.1214 22.5286 11.9109 21.9108C12.7003 21.2929 13.7415 20.984 15.0573 20.984C16.1785 20.984 17.0938 21.19 17.8261 21.6018V21.1671C17.8261 20.5149 17.5629 19.9543 17.0481 19.4966C16.5332 19.039 15.9154 18.8101 15.2289 18.8101C14.1763 18.8101 13.3411 19.2564 12.7347 20.1373L11.0757 19.0962C11.9795 17.8033 13.3296 17.1397 15.1259 17.1397ZM12.6889 24.4393C12.6889 24.9313 12.8948 25.3432 13.3182 25.6635C13.7301 25.9953 14.222 26.1555 14.7827 26.1555C15.5721 26.1555 16.2815 25.858 16.8993 25.2745C17.5171 24.691 17.8261 23.9931 17.8261 23.2036C17.2426 22.7345 16.4188 22.5057 15.3662 22.5057C14.5996 22.5057 13.9589 22.6888 13.4555 23.0549C12.9406 23.4325 12.6889 23.8901 12.6889 24.4393Z" fill="#777677"/>
<path d="M21.7617 17.4711H23.5695V19.1072H23.6495C24.2102 17.8257 25.3657 17.185 27.1163 17.185L27.5053 17.2308V19.1987L26.6701 19.1186C25.8005 19.1186 25.0797 19.3932 24.5076 19.931C23.9356 20.4687 23.661 21.1552 23.661 21.9904V27.528H21.7732V17.4711H21.7617ZM33.5234 27.6768C32.6997 27.6768 32.0246 27.4251 31.4869 26.9216C30.9491 26.4182 30.6745 25.7088 30.6517 24.8164V19.1987H28.8897V17.4825H30.6517V14.4048H32.5395V17.4825H34.9994V19.1987H32.5395V24.1986C32.5395 24.8736 32.6653 25.3198 32.9285 25.5601C33.1916 25.8004 33.4777 25.9148 33.8095 25.9148C33.9582 25.9148 34.1069 25.9034 34.2557 25.869C34.4044 25.8347 34.5303 25.7889 34.6561 25.7317L35.2511 27.4136C34.7477 27.5852 34.1756 27.6768 33.5234 27.6768Z" fill="#777677"/>
<path d="M36.8984 17.4713H38.7062V18.8671H38.7863C39.0723 18.3752 39.5185 17.9633 40.1135 17.6429C40.7084 17.3111 41.3262 17.1509 41.967 17.1509C43.1912 17.1509 44.1408 17.5056 44.8044 18.2035C45.468 18.9015 45.7998 19.9083 45.7998 21.2012V27.5168H43.912V21.327C43.8662 19.6909 43.0425 18.8671 41.4292 18.8671C40.6741 18.8671 40.0448 19.1761 39.5414 19.7825C39.038 20.3888 38.7863 21.1211 38.7863 21.9678V27.5168H36.8984V17.4713Z" fill="#777677"/>
<path d="M52.5175 27.8374C51.0415 27.8374 49.8287 27.334 48.8677 26.3157C47.9066 25.3088 47.4375 24.0274 47.4375 22.4828C47.4375 20.9497 47.9066 19.6797 48.8333 18.6614C49.7601 17.6431 50.95 17.1397 52.403 17.1397C53.8904 17.1397 55.0803 17.6202 55.9613 18.5813C56.8423 19.5424 57.2885 20.8925 57.2885 22.6316L57.2656 22.8375H49.3711C49.394 23.8215 49.7258 24.6109 50.355 25.2173C50.9843 25.8237 51.7395 26.1212 52.609 26.1212C53.8103 26.1212 54.7485 25.5148 55.435 24.3134L57.1169 25.1372C56.6707 25.9839 56.0414 26.6475 55.2405 27.128C54.4282 27.5971 53.5243 27.8374 52.5175 27.8374ZM49.5084 21.2815H55.2634C55.2062 20.5836 54.9201 20.0115 54.4167 19.5538C53.9019 19.0962 53.2154 18.8674 52.3573 18.8674C51.6479 18.8674 51.0301 19.0847 50.5267 19.5195C50.0118 19.9543 49.6686 20.5492 49.5084 21.2815Z" fill="#777677"/>
<path d="M60.88 27.5167H58.9922V17.4712H60.7999V19.1073H60.88C61.0745 18.5696 61.4635 18.1234 62.0585 17.7458C62.6534 17.3682 63.2369 17.1852 63.809 17.1852C64.3582 17.1852 64.8158 17.2653 65.2048 17.4255L64.6328 19.2446C64.4039 19.1531 64.0264 19.0959 63.523 19.0959C62.8136 19.0959 62.1958 19.3819 61.6695 19.954C61.1432 20.5261 60.88 21.2011 60.88 21.9677V27.5167Z" fill="#777677"/>
<path d="M4.75961 4.26763V5.54906H7.82589C7.72292 6.3614 7.39112 6.99067 6.81905 7.43688C6.25842 7.8831 5.57194 8.10048 4.75961 8.10048C3.80997 8.10048 3.02052 7.76868 2.36836 7.10509C1.7162 6.45293 1.39584 5.64059 1.39584 4.69096C1.39584 3.74133 1.7162 2.94043 2.36836 2.27683C3.02052 1.61323 3.80997 1.28143 4.75961 1.28143C5.64059 1.28143 6.40716 1.59035 7.07076 2.19674L7.97463 1.29287C7.07076 0.43477 5.99527 0 4.75961 0C3.92439 0 3.13493 0.217387 2.3798 0.640717C1.63611 1.06405 1.05261 1.63611 0.629275 2.36836C0.205944 3.08917 0 3.85574 0 4.69096C0 5.52618 0.205944 6.30419 0.629275 7.02499C1.05261 7.7458 1.63611 8.31787 2.3798 8.7412C3.12349 9.16453 3.91295 9.38192 4.75961 9.38192C6.0296 9.38192 7.07076 8.98147 7.90598 8.19202C8.72976 7.40256 9.14165 6.37284 9.14165 5.06852C9.14165 4.7596 9.11876 4.49645 9.073 4.26763H4.75961Z" fill="#487CBF"/>
<path d="M12.6199 3.34094C11.7617 3.34094 11.0409 3.62698 10.4574 4.21049C9.87393 4.78255 9.58789 5.50336 9.58789 6.36146C9.58789 7.20813 9.88537 7.92893 10.4689 8.51244C11.0524 9.09595 11.7617 9.38198 12.6199 9.38198C13.478 9.38198 14.1873 9.09595 14.7708 8.51244C15.3543 7.92893 15.6518 7.20813 15.6518 6.36146C15.6518 5.50336 15.3543 4.78255 14.7708 4.21049C14.1988 3.62698 13.478 3.34094 12.6199 3.34094ZM13.8212 7.66578C13.4894 8.02046 13.0889 8.19208 12.6199 8.19208C12.1393 8.19208 11.7389 8.02046 11.4071 7.66578C11.0753 7.3111 10.9151 6.87633 10.9151 6.36146C10.9151 5.82372 11.0753 5.38895 11.4071 5.05715C11.7389 4.70246 12.1393 4.53085 12.6199 4.53085C13.1004 4.53085 13.5008 4.70246 13.8326 5.05715C14.1644 5.38895 14.3246 5.82372 14.3246 6.36146C14.3246 6.86488 14.1644 7.29966 13.8212 7.66578Z" fill="#EF372C"/>
<path d="M30.835 0.320374H29.5078V9.18743H30.835V0.320374Z" fill="#00AC4E"/>
<path d="M19.2331 3.34094C18.375 3.34094 17.6542 3.62698 17.0707 4.21049C16.4872 4.78255 16.2012 5.50336 16.2012 6.36146C16.2012 7.20813 16.4986 7.92893 17.0822 8.51244C17.6657 9.09595 18.375 9.38198 19.2331 9.38198C20.0912 9.38198 20.8006 9.09595 21.3841 8.51244C21.9676 7.92893 22.2651 7.20813 22.2651 6.36146C22.2651 5.50336 21.9676 4.78255 21.3841 4.21049C20.8006 3.62698 20.0798 3.34094 19.2331 3.34094ZM20.4345 7.66578C20.1027 8.02046 19.7022 8.19208 19.2331 8.19208C18.7526 8.19208 18.3521 8.02046 18.0203 7.66578C17.6885 7.3111 17.5284 6.87633 17.5284 6.36146C17.5284 5.82372 17.6885 5.38895 18.0203 5.05715C18.3521 4.70246 18.7526 4.53085 19.2331 4.53085C19.7137 4.53085 20.1141 4.70246 20.4459 5.05715C20.7777 5.38895 20.9379 5.82372 20.9379 6.36146C20.9379 6.86488 20.7663 7.29966 20.4345 7.66578Z" fill="#FDB614"/>
<path d="M34.4608 8.19193C33.7972 8.19193 33.3052 7.88301 32.9963 7.27662L37.0351 5.60618L36.8978 5.26294C36.7948 4.97691 36.6575 4.7252 36.4859 4.48493C36.3143 4.24466 36.1198 4.05016 35.9024 3.87854C35.685 3.70692 35.4333 3.58106 35.1702 3.48953C34.907 3.398 34.621 3.35223 34.3235 3.35223C33.5112 3.35223 32.8361 3.63827 32.2869 4.21034C31.7492 4.79385 31.4746 5.51465 31.4746 6.37275C31.4746 7.23085 31.7606 7.94022 32.3327 8.52373C32.9048 9.10724 33.6141 9.39327 34.4722 9.39327C35.5363 9.39327 36.3715 8.94706 36.9893 8.05463L35.9596 7.36815C35.5706 7.9059 35.0786 8.19193 34.4608 8.19193ZM33.2366 5.01123C33.5684 4.67943 33.9459 4.50781 34.3578 4.50781C34.621 4.50781 34.8498 4.56502 35.0558 4.67943C35.2617 4.79385 35.399 4.95403 35.4791 5.13709L32.7789 6.25834C32.7675 5.75492 32.9162 5.34303 33.2366 5.01123Z" fill="#EF372C"/>
<path d="M27.3335 4.01599H27.2877C26.9102 3.56977 26.3724 3.34094 25.6974 3.34094C24.9194 3.34094 24.2443 3.63842 23.6608 4.23337C23.0888 4.82832 22.8027 5.53768 22.8027 6.3729C22.8027 7.19668 23.0888 7.90605 23.6608 8.501C24.2443 9.08451 24.9308 9.38198 25.6974 9.38198C26.3724 9.38198 26.9102 9.15316 27.2877 8.6955H27.3335V9.00442C27.3335 10.2744 26.7958 10.9037 25.7203 10.9037C25.377 10.9037 25.0681 10.8007 24.805 10.6062C24.5418 10.4117 24.3359 10.1486 24.1986 9.8282L23.043 10.3087C23.1574 10.5719 23.3062 10.8122 23.4778 11.0295C23.6494 11.2469 23.8553 11.43 24.0842 11.5902C24.313 11.7503 24.5647 11.8648 24.8393 11.9563C25.1139 12.0478 25.3999 12.0821 25.7088 12.0821C26.6127 12.0821 27.3106 11.8076 27.8141 11.2698C28.3175 10.7206 28.5692 9.95405 28.5692 8.94721V3.53545H27.3106V4.01599H27.3335ZM26.956 7.67722C26.647 8.02046 26.258 8.19208 25.8118 8.19208C25.3427 8.19208 24.9423 8.02046 24.6105 7.66578C24.2901 7.3111 24.1299 6.88776 24.1299 6.3729C24.1299 5.85804 24.2901 5.42327 24.6219 5.06859C24.9537 4.71391 25.3542 4.53085 25.8118 4.53085C26.2695 4.53085 26.647 4.70246 26.956 5.05715C27.2649 5.41183 27.425 5.85804 27.425 6.3729C27.425 6.87632 27.2649 7.3111 26.956 7.67722Z" fill="#487CBF"/>
</svg>
