<svg width="65" height="65" viewBox="0 0 65 65" fill="none" xmlns="http://www.w3.org/2000/svg">
<path d="M31.5237 31.6806C31.2027 32.0016 31.1804 32.4997 31.4739 32.7932C31.7674 33.0867 32.2655 33.0644 32.5865 32.7434C33.0017 32.3282 32.9552 31.9496 32.8024 31.4647C32.6497 30.9798 32.6031 30.6012 33.0183 30.186C33.3393 29.865 33.8374 29.8427 34.1309 30.1362C34.4244 30.4297 34.4021 30.9278 34.0811 31.2488" stroke="#FFBB17" stroke-miterlimit="10" stroke-linecap="round" stroke-linejoin="round"/>
<path d="M34.3965 29.8705L34.1309 30.1362" stroke="#FFBB17" stroke-miterlimit="10" stroke-linecap="round" stroke-linejoin="round"/>
<path d="M31.4737 32.7934L31.208 33.0591" stroke="#FFBB17" stroke-miterlimit="10" stroke-linecap="round" stroke-linejoin="round"/>
<path d="M35.6062 32.1214C35.3574 32.5374 35.0411 32.9455 34.662 33.3246C33.0479 34.9388 30.9066 35.4146 29.8795 34.3874C28.8522 33.3602 29.3281 31.219 30.9422 29.6048C32.5564 27.9907 34.6976 27.5149 35.7248 28.542C36.222 29.0392 36.367 29.7973 36.2014 30.6304" stroke="#FFBB17" stroke-miterlimit="10" stroke-linecap="round" stroke-linejoin="round"/>
<path d="M35.7248 28.542L36.7876 29.6048C37.8147 30.6319 37.339 32.7732 35.7248 34.3874C34.1106 36.0015 31.9694 36.4773 30.9422 35.4502L29.8794 34.3874" stroke="#FFBB17" stroke-miterlimit="10" stroke-linecap="round" stroke-linejoin="round"/>
<path d="M8.3235 2.4901L56.3235 2.0101C56.8797 2.00454 57.3335 2.45386 57.3335 3.01005V7.5C57.3335 8.05228 56.8858 8.5 56.3335 8.5H55.3335L38.3335 23V29L26.3335 36.5L26.8335 23L9.3335 8.5H8.3335C7.78121 8.5 7.3335 8.05228 7.3335 7.5V3.49005C7.3335 2.94167 7.77514 2.49558 8.3235 2.4901Z" fill="white"/>
<path d="M55.3335 8.5H56.3335C56.8858 8.5 57.3335 8.05228 57.3335 7.5V3.01005C57.3335 2.45386 56.8797 2.00454 56.3235 2.0101L8.3235 2.4901C7.77514 2.49558 7.3335 2.94167 7.3335 3.49005V7.5C7.3335 8.05228 7.78121 8.5 8.3335 8.5H9.3335M55.3335 8.5L38.3335 23M55.3335 8.5H9.3335M38.3335 23H26.8335M38.3335 23V29L26.3335 36.5L26.8335 23M26.8335 23L9.3335 8.5" stroke="black" stroke-width="1.5"/>
<path d="M38.2473 46.3054C38.5683 46.6264 39.0664 46.6487 39.3599 46.3552C39.6534 46.0617 39.6311 45.5636 39.3101 45.2426C38.8949 44.8275 38.5163 44.8739 38.0314 45.0267C37.5465 45.1795 37.1679 45.226 36.7527 44.8108C36.4317 44.4898 36.4094 43.9917 36.7029 43.6982C36.9964 43.4048 37.4945 43.427 37.8155 43.748" stroke="#FFBB17" stroke-miterlimit="10" stroke-linecap="round" stroke-linejoin="round"/>
<path d="M36.4375 43.4326L36.7032 43.6982" stroke="#FFBB17" stroke-miterlimit="10" stroke-linecap="round" stroke-linejoin="round"/>
<path d="M39.3604 46.3554L39.626 46.6211" stroke="#FFBB17" stroke-miterlimit="10" stroke-linecap="round" stroke-linejoin="round"/>
<path d="M36.1717 46.8866C37.7859 48.5008 39.9271 48.9766 40.9543 47.9494C41.9815 46.9222 41.5057 44.781 39.8915 43.1669C38.2773 41.5527 36.1361 41.0769 35.1089 42.104C34.0818 43.1312 34.5576 45.2724 36.1717 46.8866Z" stroke="#FFBB17" stroke-miterlimit="10" stroke-linecap="round" stroke-linejoin="round"/>
<path d="M35.1087 42.1042L34.0459 43.167C33.0188 44.1942 33.4946 46.3355 35.1087 47.9496C36.7229 49.5637 38.8641 50.0396 39.8913 49.0124L40.9541 47.9496" stroke="#FFBB17" stroke-miterlimit="10" stroke-linecap="round" stroke-linejoin="round"/>
<path d="M28.1775 46.3623C27.7236 46.3671 27.3591 46.7074 27.3635 47.1224C27.3679 47.5374 27.7395 47.87 28.1934 47.8652C28.7805 47.859 29.0122 47.5559 29.2422 47.1026C29.4723 46.6492 29.7039 46.3461 30.291 46.3399C30.745 46.3351 31.1165 46.6677 31.1209 47.0827C31.1253 47.4977 30.7608 47.8381 30.3069 47.8429" stroke="#FFBB17" stroke-miterlimit="10" stroke-linecap="round" stroke-linejoin="round"/>
<path d="M31.4963 47.0788L31.1206 47.0828" stroke="#FFBB17" stroke-miterlimit="10" stroke-linecap="round" stroke-linejoin="round"/>
<path d="M27.3635 47.1223L26.9878 47.1262" stroke="#FFBB17" stroke-miterlimit="10" stroke-linecap="round" stroke-linejoin="round"/>
<path d="M30.9579 44.6981C30.427 44.547 29.8361 44.4658 29.2141 44.4724C26.9314 44.4965 25.0935 45.6936 25.1088 47.1462C25.1242 48.5988 26.9871 49.7568 29.2697 49.7327C31.5523 49.7085 33.3903 48.5114 33.3749 47.0589C33.368 46.398 32.9786 45.7981 32.3412 45.3428" stroke="#FFBB17" stroke-miterlimit="10" stroke-linecap="round" stroke-linejoin="round"/>
<path d="M33.3753 47.0591L33.3594 45.5561C33.3441 44.1036 31.4812 42.9455 29.1985 42.9697C26.9159 42.9938 25.0779 44.1909 25.0932 45.6435L25.1091 47.1464" stroke="#FFBB17" stroke-miterlimit="10" stroke-linecap="round" stroke-linejoin="round"/>
<path d="M43.8082 44.1252C45.3833 42.6341 46.3658 40.5233 46.3658 38.1821M51.0448 51.0433L47.5048 47.5033M38.1837 51.3643C45.444 51.3643 51.3658 45.4426 51.3658 38.1822C51.3658 30.9217 45.444 25 38.1837 25C30.9232 25 25.0015 30.9217 25.0015 38.1822C25.0015 45.4426 30.9232 51.3643 38.1837 51.3643ZM52.3444 50.0527L50.0541 52.3429C49.4244 52.9727 49.4244 54.0033 50.0541 54.6332L58.8134 63.3923C59.4431 64.0221 60.4737 64.0221 61.1035 63.3923L63.3938 61.1021C64.0236 60.4723 64.0236 59.4418 63.3938 58.8119L54.6345 50.0527C54.0047 49.4228 52.9741 49.4229 52.3444 50.0527Z" stroke="#165EF0" stroke-width="1.8" stroke-miterlimit="22.926" stroke-linecap="round" stroke-linejoin="round"/>
</svg>
