<svg width="64" height="64" viewBox="0 0 64 64" fill="none" xmlns="http://www.w3.org/2000/svg">
<path d="M49.7049 42.6205V10.0228C49.7049 8.48887 49.0955 7.01773 48.0108 5.93306C46.9262 4.84838 45.455 4.23901 43.9211 4.23901H20.7858C19.2518 4.23901 17.7807 4.84838 16.696 5.93306C15.6113 7.01773 15.002 8.48887 15.002 10.0228V53.9799C15.002 54.7394 15.1516 55.4915 15.4422 56.1933C15.7329 56.895 16.1589 57.5326 16.696 58.0697C17.2331 58.6068 17.8707 59.0328 18.5724 59.3235C19.2741 59.6141 20.0262 59.7637 20.7858 59.7637C35.6965 59.7637 35.0603 59.9372 35.5461 59.3589C36.5872 58.1327 35.28 57.6121 28.432 51.7589C28.3013 51.6479 28.2005 51.506 28.1386 51.3461C28.0767 51.1862 28.0557 51.0134 28.0775 50.8433C28.0993 50.6732 28.1633 50.5113 28.2636 50.3722C28.3639 50.2331 28.4973 50.1213 28.6518 50.0469C29.1723 49.7808 28.9757 49.8271 34.2968 51.6085C34.4711 51.6674 34.6568 51.6838 34.8387 51.6565C35.0206 51.6292 35.1934 51.5589 35.3427 51.4515C35.492 51.344 35.6135 51.2025 35.6971 51.0387C35.7808 50.8749 35.8242 50.6935 35.8237 50.5096V35.4717C35.8237 35.1649 35.9456 34.8706 36.1625 34.6537C36.3795 34.4368 36.6737 34.3149 36.9805 34.3149C37.2873 34.3149 37.5815 34.4368 37.7984 34.6537C38.0154 34.8706 38.1372 35.1649 38.1372 35.4717V48.1961C38.1372 48.5029 38.2591 48.7971 38.4761 49.014C38.693 49.231 38.9872 49.3528 39.294 49.3528C39.6008 49.3528 39.895 49.231 40.112 49.014C40.3289 48.7971 40.4508 48.5029 40.4508 48.1961V43.569C40.4508 43.2622 40.5726 42.968 40.7896 42.7511C41.0065 42.5341 41.3007 42.4122 41.6075 42.4122C41.9143 42.4122 42.2086 42.5341 42.4255 42.7511C42.6424 42.968 42.7643 43.2622 42.7643 43.569V48.1961C42.7643 48.5029 42.8862 48.7971 43.1031 49.014C43.3201 49.231 43.6143 49.3528 43.9211 49.3528C44.2279 49.3528 44.5221 49.231 44.739 49.014C44.956 48.7971 45.0778 48.5029 45.0778 48.1961V44.7258C45.0778 44.419 45.1997 44.1248 45.4166 43.9078C45.6336 43.6909 45.9278 43.569 46.2346 43.569C46.5414 43.569 46.8356 43.6909 47.0526 43.9078C47.2695 44.1248 47.3914 44.419 47.3914 44.7258V48.1961C47.3914 48.5029 47.5132 48.7971 47.7302 49.014C47.9471 49.231 48.2413 49.3528 48.5481 49.3528C48.8549 49.3528 49.1492 49.231 49.3661 49.014C49.583 48.7971 49.7049 48.5029 49.7049 48.1961V45.8825C49.7049 45.5757 49.8268 45.2815 50.0437 45.0646C50.2606 44.8476 50.5549 44.7258 50.8617 44.7258C51.1685 44.7258 51.4627 44.8476 51.6796 45.0646C51.8966 45.2815 52.0184 45.5757 52.0184 45.8825V58.607C52.0184 58.9137 52.1403 59.208 52.3572 59.4249C52.5742 59.6418 52.8684 59.7637 53.1752 59.7637C53.482 59.7637 53.7762 59.6418 53.9931 59.4249C54.2101 59.208 54.332 58.9137 54.332 58.607V45.8825C54.3304 45.3282 54.1961 44.7823 53.9402 44.2905C53.6843 43.7987 53.3143 43.3754 52.8613 43.056C52.4082 42.7366 51.8852 42.5303 51.336 42.4546C50.7869 42.3788 50.2275 42.4357 49.7049 42.6205ZM17.3155 10.0228C17.3155 9.10246 17.6811 8.21978 18.3319 7.56897C18.9827 6.91816 19.8654 6.55254 20.7858 6.55254H43.9211C44.8415 6.55254 45.7241 6.91816 46.3749 7.56897C47.0257 8.21978 47.3914 9.10246 47.3914 10.0228V11.1796H17.3155V10.0228ZM31.5321 57.4502H20.7858C19.8654 57.4502 18.9827 57.0846 18.3319 56.4338C17.6811 55.783 17.3155 54.9003 17.3155 53.9799V52.8231H26.3267C26.6968 53.3899 26.4771 53.1355 31.5321 57.4502ZM44.5342 41.7182C44.1133 41.056 43.4805 40.5559 42.7389 40.2996C41.9973 40.0433 41.1907 40.0459 40.4508 40.3069V35.4717C40.4508 34.5513 40.0852 33.6686 39.4344 33.0178C38.7835 32.367 37.9009 32.0014 36.9805 32.0014C36.0601 32.0014 35.1774 32.367 34.5266 33.0178C33.8758 33.6686 33.5102 34.5513 33.5102 35.4717C33.5102 37.2068 33.5102 37.2068 33.5102 37.7852V48.9017L30.1787 47.7449C29.709 47.5888 29.2105 47.5389 28.7192 47.5989C28.2279 47.6589 27.756 47.8272 27.3377 48.0917C26.9193 48.3562 26.5649 48.7103 26.3001 49.1285C26.0352 49.5466 25.8665 50.0183 25.8061 50.5096H17.3155V13.4931H47.3914V41.4637C46.9261 41.2914 46.4283 41.2249 45.9341 41.2689C45.4399 41.3129 44.9617 41.4664 44.5342 41.7182Z" fill="black"/>
<path d="M28.8839 18.12V23.9038C28.8839 24.5174 28.6402 25.1059 28.2063 25.5398C27.7725 25.9736 27.184 26.2174 26.5704 26.2174C25.9568 26.2174 25.3684 25.9736 24.9345 25.5398C24.5006 25.1059 24.2569 24.5174 24.2569 23.9038V18.12C24.2569 17.8132 24.135 17.519 23.9181 17.3021C23.7011 17.0851 23.4069 16.9633 23.1001 16.9633C22.7933 16.9633 22.4991 17.0851 22.2822 17.3021C22.0652 17.519 21.9434 17.8132 21.9434 18.12V23.9038C21.9434 25.131 22.4309 26.3079 23.2986 27.1757C24.1663 28.0434 25.3432 28.5309 26.5704 28.5309C27.7976 28.5309 28.9745 28.0434 29.8422 27.1757C30.71 26.3079 31.1975 25.131 31.1975 23.9038V18.12C31.1975 17.8132 31.0756 17.519 30.8587 17.3021C30.6417 17.0851 30.3475 16.9633 30.0407 16.9633C29.7339 16.9633 29.4397 17.0851 29.2228 17.3021C29.0058 17.519 28.8839 17.8132 28.8839 18.12ZM40.6829 17.426L38.1381 20.8153L35.5932 17.426C35.4091 17.1805 35.1351 17.0183 34.8314 16.9749C34.5277 16.9315 34.2191 17.0105 33.9737 17.1946C33.7283 17.3787 33.566 17.6527 33.5226 17.9564C33.4792 18.2601 33.5583 18.5687 33.7424 18.8141L36.6921 22.7471L33.7424 26.6801C33.5583 26.9255 33.4792 27.234 33.5226 27.5377C33.566 27.8414 33.7283 28.1155 33.9737 28.2996C34.2191 28.4836 34.5277 28.5627 34.8314 28.5193C35.1351 28.4759 35.4091 28.3136 35.5932 28.0682L38.1381 24.6789L40.6829 28.0682C40.867 28.3136 41.1411 28.4759 41.4448 28.5193C41.7485 28.5627 42.057 28.4836 42.3024 28.2996C42.5479 28.1155 42.7101 27.8414 42.7535 27.5377C42.7969 27.234 42.7178 26.9255 42.5338 26.6801L39.584 22.7471L42.5338 18.8141C42.7178 18.5687 42.7969 18.2601 42.7535 17.9564C42.7101 17.6527 42.5479 17.3787 42.3024 17.1946C42.057 17.0105 41.7485 16.9315 41.4448 16.9749C41.1411 17.0183 40.867 17.1805 40.6829 17.426Z" fill="#FFBB17"/>
<path d="M22 34H31" stroke="#165EF0" stroke-width="2" stroke-linecap="round"/>
</svg>
