<svg width="64" height="64" viewBox="0 0 64 64" fill="none" xmlns="http://www.w3.org/2000/svg">
<path d="M40.0506 47.25L40.2005 46.875C40.2005 45.1533 40.969 43.5154 42.3109 42.4367C46.0659 39.4182 48.4691 34.7868 48.4691 29.594C48.4691 20.459 41.0315 13.061 31.8815 13.1255C22.977 13.1883 15.53 20.6915 15.5313 29.5963C15.5319 34.7364 17.8875 39.3264 21.5778 42.3462C22.9454 43.4653 23.7715 45.1119 23.7991 46.8752L23.9905 47.2502H40.0506V47.25Z" fill="#FFDA2D"/>
<path d="M48.4688 29.5938C48.4688 34.7863 46.0662 39.4175 42.3112 42.4362C40.9687 43.515 40.2 45.1538 40.2 46.875L40.05 47.25H32V13.125C41.095 13.125 48.4688 20.4987 48.4688 29.5938Z" fill="#FFBB17"/>
<path d="M26.3125 57.625V58.3125C26.3125 61.4536 28.8589 64 32 64C35.1411 64 37.6875 61.4536 37.6875 58.3125V57.6828L26.3125 57.625Z" fill="#165EF0"/>
<path d="M37.6875 57.6826V58.3126C37.6875 59.8826 37.0513 61.3051 36.0213 62.3338C34.9925 63.3638 33.57 64.0001 32 64.0001V57.6538L37.6875 57.6826Z" fill="#4E84F4"/>
<path d="M40.7315 26.1006C40.0967 25.2825 38.919 25.1339 38.1007 25.7686L33.8751 29.0471V27.25C33.8751 25.693 32.0802 24.8145 30.8507 25.7686L23.6007 31.3936C22.7826 32.0284 22.6338 33.2062 23.2687 34.0244C23.9043 34.8437 25.0825 34.9904 25.8995 34.3564L30.1251 31.0779V32.875C30.1251 34.4319 31.92 35.3106 33.1495 34.3564L40.3995 28.7314C41.2176 28.0966 41.3664 26.9187 40.7315 26.1006Z" fill="#4E84F4"/>
<path d="M40.3988 28.7313L33.1488 34.3563C32.7938 34.6313 32.3925 34.7538 32 34.7526V25.3726C32.9663 25.3776 33.875 26.1426 33.875 27.2501V29.0476L38.1012 25.7688C38.9187 25.1338 40.0963 25.2826 40.7313 26.1013C41.3663 26.9188 41.2175 28.0963 40.3988 28.7313Z" fill="#165EF0"/>
<path d="M32 0C30.9645 0 30.125 0.8395 30.125 1.875V5.75C30.125 6.7855 30.9645 7.625 32 7.625C33.0355 7.625 33.875 6.7855 33.875 5.75V1.875C33.875 0.8395 33.0355 0 32 0Z" fill="#FFDA2D"/>
<path d="M33.875 1.875V5.75C33.875 6.785 33.035 7.625 32 7.625V0C33.035 0 33.875 0.84 33.875 1.875Z" fill="#FFBB17"/>
<path d="M13.6594 8.69543C12.9272 7.96318 11.74 7.96318 11.0077 8.69543C10.2755 9.42768 10.2755 10.6148 11.0077 11.3471L13.7478 14.0871C14.4799 14.8193 15.6671 14.8194 16.3994 14.0871C17.1316 13.3548 17.1316 12.1677 16.3994 11.4354L13.6594 8.69543ZM9.9375 29.6876C9.9375 28.6521 9.098 27.8126 8.0625 27.8126H4.1875C3.152 27.8126 2.3125 28.6521 2.3125 29.6876C2.3125 30.7231 3.152 31.5626 4.1875 31.5626H8.0625C9.098 31.5626 9.9375 30.7231 9.9375 29.6876Z" fill="#FFDA2D"/>
<path d="M59.8125 27.8125H55.9375C54.902 27.8125 54.0625 28.652 54.0625 29.6875C54.0625 30.723 54.902 31.5625 55.9375 31.5625H59.8125C60.848 31.5625 61.6875 30.723 61.6875 29.6875C61.6875 28.652 60.848 27.8125 59.8125 27.8125ZM58.4128 38.5986L54.8328 37.1157C53.8762 36.7194 52.7793 37.1738 52.383 38.1305C51.9867 39.0873 52.441 40.184 53.3977 40.5804L56.9777 42.0633C57.9381 42.4611 59.0327 42.0015 59.4276 41.0485C59.8238 40.0916 59.3696 38.9949 58.4128 38.5986Z" fill="#FFBB17"/>
<path d="M23.089 3.27459C22.6927 2.31796 21.5959 1.86371 20.6392 2.25984C19.6824 2.65609 19.2282 3.75296 19.6244 4.70971L21.1073 8.28971C21.503 9.24496 22.599 9.70134 23.5572 9.30446C24.5139 8.90821 24.9682 7.81134 24.5719 6.85459L23.089 3.27459ZM10.6023 18.7947L7.02228 17.3118C6.06553 16.9155 4.96878 17.3698 4.57241 18.3266C4.17616 19.2833 4.63041 20.3801 5.58716 20.7765L9.16716 22.2593C10.1275 22.6572 11.2222 22.1976 11.617 21.2446C12.0133 20.2878 11.559 19.191 10.6023 18.7947Z" fill="#FFDA2D"/>
<path d="M52.9925 8.69535C52.2604 7.96311 51.0731 7.96311 50.3409 8.69535L47.6009 11.4354C46.8686 12.1676 46.8686 13.3547 47.6009 14.087C48.333 14.8192 49.5202 14.8194 50.2525 14.087L52.9925 11.347C53.7246 10.6146 53.7246 9.42748 52.9925 8.69535ZM43.3611 2.25985C42.4044 1.86373 41.3076 2.31785 40.9112 3.2746L39.4284 6.8546C39.0321 7.81135 39.4864 8.9081 40.4431 9.30448C40.6703 9.39891 40.9139 9.44759 41.1599 9.44773C41.8956 9.44773 42.5937 9.01185 42.8929 8.28973L44.3757 4.70973C44.7721 3.75285 44.3179 2.6561 43.3611 2.25985Z" fill="#FFBB17"/>
<path d="M9.16716 37.1157L5.58716 38.5986C4.63041 38.9949 4.17616 40.0917 4.57241 41.0485C4.96803 42.0036 6.06416 42.4602 7.02228 42.0632L10.6023 40.5804C11.559 40.1841 12.0133 39.0872 11.617 38.1305C11.2207 37.1737 10.124 36.7192 9.16716 37.1157Z" fill="#FFDA2D"/>
<path d="M52.3829 21.2446C52.7785 22.1997 53.8746 22.6563 54.8328 22.2593L58.4128 20.7765C59.3695 20.3802 59.8238 19.2833 59.4275 18.3266C59.0313 17.3698 57.9345 16.9155 56.9776 17.3118L53.3976 18.7947C52.441 19.191 51.9868 20.2878 52.3829 21.2446Z" fill="#FFBB17"/>
<path d="M40.2001 46.875H23.7988V50.625L31.9998 51.875L40.2001 50.625V46.875Z" fill="#EDF5FF"/>
<path d="M40.2 46.875V50.625L32 51.875V46.875H40.2Z" fill="#CEE8FF"/>
<path d="M23.7988 50.625V56.375C23.7988 57.4105 24.6383 58.25 25.6738 58.25H38.3252C39.3607 58.25 40.2002 57.4105 40.2002 56.375V50.625H23.7988Z" fill="#CEE8FF"/>
<path d="M40.2 50.625V56.375C40.2 57.41 39.3613 58.25 38.325 58.25H32V50.625H40.2Z" fill="#AEDAFF"/>
</svg>
