<svg width="64" height="64" viewBox="0 0 64 64" fill="none" xmlns="http://www.w3.org/2000/svg">
<g clip-path="url(#clip0_648_1211)">
<path d="M32 64C49.6731 64 64 49.6731 64 32C64 14.3269 49.6731 0 32 0C14.3269 0 0 14.3269 0 32C0 49.6731 14.3269 64 32 64Z" fill="#4E84F4"/>
<path d="M32 0V64C49.6731 64 64 49.6731 64 32C64 14.3269 49.6731 0 32 0Z" fill="#165EF0"/>
<path d="M32 56.5C18.4906 56.5 7.5 45.5094 7.5 32C7.5 18.4906 18.4906 7.5 32 7.5C45.5094 7.5 56.5 18.4906 56.5 32C56.5 45.5094 45.5094 56.5 32 56.5Z" fill="#FFF5F5"/>
<path d="M32 7.5V56.5C45.5094 56.5 56.5 45.5094 56.5 32C56.5 18.4906 45.5094 7.5 32 7.5Z" fill="#ECF2FE"/>
<path d="M32 49C22.6263 49 15 41.3737 15 32C15 22.6263 22.6263 15 32 15C41.3737 15 49 22.6263 49 32C49 41.3737 41.3737 49 32 49Z" fill="#4E84F4"/>
<path d="M32 15V49C41.3737 49 49 41.3737 49 32C49 22.6263 41.3737 15 32 15Z" fill="#165EF0"/>
<path d="M32 41.5C26.7618 41.5 22.5 37.2382 22.5 32C22.5 26.7618 26.7618 22.5 32 22.5C37.2382 22.5 41.5 26.7618 41.5 32C41.5 37.2382 37.2382 41.5 32 41.5Z" fill="#FFF5F5"/>
<path d="M32 22.5V41.5C37.2382 41.5 41.5 37.2382 41.5 32C41.5 26.7618 37.2382 22.5 32 22.5Z" fill="#ECE9E8"/>
<path d="M62.7309 8.94052L58.9904 7.66089L56.566 7.43365L56.3388 5.00927L55.0591 1.2689C54.61 -0.0438548 52.9403 -0.431105 51.9593 0.55002L44.0043 8.50502C43.7563 8.75301 43.5828 9.0656 43.5036 9.40725C43.4243 9.7489 43.4425 10.1059 43.556 10.4378L46.1065 17.8933L53.562 20.4438C53.8939 20.5573 54.2509 20.5755 54.5925 20.4962C54.9342 20.417 55.2468 20.2435 55.4948 19.9955L63.4498 12.0405C64.4309 11.0594 64.0436 9.38965 62.7309 8.94052Z" fill="#FFBB17"/>
<path d="M62.7313 8.94047L58.9908 7.66084L56.5664 7.43359L46.1069 17.8931L53.5624 20.4436C53.8943 20.5571 54.2513 20.5753 54.593 20.4961C54.9346 20.4168 55.2472 20.2433 55.4952 19.9953L63.4502 12.0403C64.4313 11.0593 64.0441 9.38959 62.7313 8.94047Z" fill="#FFD161"/>
<path d="M56.3391 5.00928L57.0149 6.98503L58.9907 7.6609L33.3258 33.3258C32.5936 34.058 31.4064 34.058 30.6742 33.3258C29.9419 32.5935 29.9419 31.4064 30.6742 30.6742L56.3391 5.00928Z" fill="#FFD161"/>
<path d="M57.0152 6.98499L58.9909 7.66086L33.3259 33.3257C32.5937 34.058 31.4066 34.058 30.6743 33.3257L57.0152 6.98499Z" fill="#FFBB17"/>
</g>
<defs>
<clipPath id="clip0_648_1211">
<rect width="64" height="64" fill="white"/>
</clipPath>
</defs>
</svg>
