<svg width="64" height="64" viewBox="0 0 64 64" fill="none" xmlns="http://www.w3.org/2000/svg">
<g clip-path="url(#clip0_648_1251)">
<path d="M27.7246 17.4409C27.5454 17.142 27.2864 16.8989 26.9768 16.7389C26.6672 16.5788 26.3191 16.5081 25.9716 16.5348L10.7349 17.7118C9.19226 17.831 7.81815 18.6395 6.96465 19.9303L0.57033 29.6017C-0.07679 30.5806 -0.179789 31.8054 0.294957 32.8784C0.769578 33.9514 1.7452 34.699 2.90456 34.8786L15.2595 36.7923C15.6189 36.8479 15.9867 36.7978 16.3181 36.6481C16.6496 36.4984 16.9304 36.2556 17.1263 35.9493L27.6959 19.414C27.8836 19.1203 27.9857 18.7801 27.9907 18.4315C27.9958 18.083 27.9037 17.74 27.7246 17.4409Z" fill="#165EF0"/>
<path d="M46.559 36.2754C46.2599 36.0963 45.9169 36.0042 45.5683 36.0092C45.2198 36.0143 44.8796 36.1164 44.5859 36.3042L28.0507 46.8737C27.7443 47.0696 27.5015 47.3504 27.3518 47.6818C27.2021 48.0133 27.152 48.3811 27.2076 48.7406L29.1211 61.0955C29.3007 62.2549 30.0485 63.2304 31.1216 63.7052C31.559 63.8992 32.0321 63.9996 32.5106 63.9999C33.1821 63.9994 33.8386 63.8011 34.3982 63.4298L44.0697 57.0354C45.3605 56.1821 46.1691 54.8079 46.2881 53.2651L47.4651 38.0285C47.4919 37.681 47.4214 37.3328 47.2613 37.0231C47.1013 36.7134 46.858 36.4545 46.559 36.2754Z" fill="#165EF0"/>
<path d="M24.1087 51.5344C24.8549 52.2806 25.9153 52.6298 26.9561 52.4556C42.22 49.9034 54.2985 37.2655 58.8969 28.3752C64.003 18.5035 64.1921 8.0716 63.9252 3.17913C63.8337 1.50265 62.4974 0.166283 60.8209 0.0747838C55.9284 -0.191964 45.4966 -0.0028405 35.6248 5.10324C26.7346 9.70158 14.0967 21.7801 11.5445 37.044C11.3705 38.0849 11.7195 39.1452 12.4657 39.8915L24.1087 51.5344Z" fill="#D6E8FF"/>
<path d="M62.9674 1.03259L18.2871 45.7129L24.1086 51.5343C24.8548 52.2806 25.9152 52.6296 26.956 52.4556C42.2199 49.9033 54.2985 37.2654 58.8968 28.3753C64.0029 18.5036 64.192 8.07166 63.9251 3.1792C63.8819 2.36994 63.5408 1.6053 62.9674 1.03259Z" fill="#AEDAFF"/>
<path d="M43.8411 29.5295C41.44 29.5297 39.0399 28.6159 37.2121 26.7881C35.4413 25.0175 34.4661 22.6631 34.4661 20.159C34.4661 17.6549 35.4413 15.3005 37.2121 13.5299C40.8671 9.87469 46.8147 9.87457 50.4701 13.5299C52.2408 15.3005 53.2159 17.6549 53.2159 20.159C53.2159 22.6631 52.2408 25.0175 50.4701 26.7881C48.6427 28.6155 46.2415 29.5293 43.8411 29.5295ZM11.5445 37.044C11.3705 38.0849 11.7195 39.1452 12.4657 39.8915L24.1087 51.5344C24.8549 52.2806 25.9153 52.6296 26.9561 52.4556C30.2775 51.9002 33.4477 50.867 36.4232 49.4991L14.501 27.5771C13.1331 30.5524 12.0999 33.7228 11.5445 37.044Z" fill="#466288"/>
<path d="M1.91304 52.7418C2.39278 52.7418 2.87278 52.5587 3.23878 52.1926L9.36035 46.071C10.0926 45.3389 10.0926 44.1517 9.36035 43.4194C8.62823 42.6872 7.44112 42.6872 6.70875 43.4194L0.587296 49.541C-0.144948 50.2731 -0.144948 51.4604 0.587296 52.1926C0.761176 52.367 0.967817 52.5053 1.19534 52.5996C1.42286 52.6938 1.66676 52.7422 1.91304 52.7418ZM14.9704 49.0296C14.2383 48.2975 13.0511 48.2975 12.3188 49.0296L0.549671 60.7988C-0.182573 61.5309 -0.182573 62.7181 0.549671 63.4504C0.915794 63.8165 1.39566 63.9995 1.87554 63.9995C2.35541 63.9995 2.83528 63.8164 3.20128 63.4503L14.9704 51.6811C15.7027 50.949 15.7027 49.7617 14.9704 49.0296Z" fill="#FFDA2D"/>
<path d="M20.5806 54.6397C19.8485 53.9076 18.6613 53.9076 17.929 54.6397L11.8076 60.7612C11.0753 61.4933 11.0753 62.6806 11.8076 63.4128C12.1737 63.7789 12.6536 63.962 13.1333 63.962C13.6131 63.962 14.0931 63.7789 14.4591 63.4128L20.5806 57.2912C21.3129 56.5591 21.3129 55.3719 20.5806 54.6397ZM0.549805 63.4504C0.915927 63.8165 1.3958 63.9995 1.87567 63.9995C2.35554 63.9995 2.83541 63.8164 3.20141 63.4503L14.9706 51.6811C15.7028 50.949 15.7028 49.7618 14.9706 49.0295L0.549805 63.4504Z" fill="#FFBB17"/>
<path d="M18.2871 45.7129L24.1086 51.5344C24.8548 52.2806 25.9152 52.6296 26.956 52.4556C30.2774 51.9002 33.4476 50.867 36.4231 49.4991L25.4621 38.5381L18.2871 45.7129ZM37.212 26.7881C39.0398 28.6159 41.4399 29.5298 43.841 29.5295C46.2414 29.5293 48.6426 28.6154 50.47 26.7881C52.2407 25.0173 53.2158 22.6631 53.2158 20.159C53.2158 17.6549 52.2407 15.3005 50.47 13.5299L37.212 26.7881Z" fill="#354A67"/>
<path d="M43.8408 14.5367C42.4004 14.5367 40.9599 15.085 39.8634 16.1816C38.8011 17.244 38.2158 18.6565 38.2158 20.159C38.2158 21.6615 38.8011 23.074 39.8634 24.1364C42.0566 26.3295 45.6253 26.3296 47.8184 24.1364C48.8808 23.0739 49.4659 21.6614 49.4659 20.1589C49.4659 18.6564 48.8808 17.2439 47.8184 16.1815C46.7218 15.085 45.2814 14.5367 43.8408 14.5367Z" fill="#4BBEFD"/>
<path d="M47.8182 16.1816L39.8633 24.1365C42.0564 26.3296 45.6252 26.3298 47.8182 24.1365C48.8805 23.074 49.4657 21.6615 49.4657 20.159C49.4657 18.6565 48.8807 17.244 47.8182 16.1816Z" fill="#165EF0"/>
</g>
<defs>
<clipPath id="clip0_648_1251">
<rect width="64" height="64" fill="white"/>
</clipPath>
</defs>
</svg>
