<svg width="60" height="60" viewBox="0 0 60 60" fill="none" xmlns="http://www.w3.org/2000/svg">
<rect width="60" height="60" rx="6" fill="#F1F8FF"/>
<path d="M36.5806 25.0754C37.0408 24.6203 37.0448 23.8783 36.5897 23.4181C36.1347 22.958 35.3926 22.9539 34.9325 23.409L36.5806 25.0754ZM27.9103 33.6501L36.5806 25.0754L34.9325 23.409L26.2622 31.9837L27.9103 33.6501Z" fill="#AFB0B5"/>
<path d="M40.3683 35.7345L43.0502 27.6887C45.3931 20.66 46.5645 17.1457 44.7094 15.2905C42.8544 13.4354 39.34 14.6069 32.3113 16.9498L24.2654 19.6317C18.5926 21.5227 15.7561 22.4682 14.9501 23.8547C14.1833 25.1736 14.1833 26.8026 14.9501 28.1216C15.7561 29.5081 18.5926 30.4536 24.2654 32.3445C25.1763 32.6481 25.6317 32.8 26.0124 33.0548C26.3813 33.3017 26.6982 33.6187 26.9452 33.9877C27.2 34.3683 27.3519 34.8237 27.6555 35.7345C29.5464 41.4075 30.4919 44.2439 31.8784 45.0498C33.1973 45.8167 34.8264 45.8167 36.1453 45.0498C37.5319 44.2439 38.4773 41.4075 40.3683 35.7345Z" stroke="#0E0D17" stroke-width="2.5"/>
</svg>
