<svg width="65" height="64" viewBox="0 0 65 64" fill="none" xmlns="http://www.w3.org/2000/svg">
<path d="M19.542 1.25018H45.7919C48.5531 1.25018 50.7919 3.48893 50.7919 6.25017V57.75C50.7919 60.5113 48.5531 62.75 45.7919 62.75H19.542C16.7807 62.75 14.542 60.5113 14.542 57.75V6.25017C14.542 3.48893 16.7807 1.25018 19.542 1.25018Z" stroke="black" stroke-width="1.7" stroke-miterlimit="10" stroke-linecap="round" stroke-linejoin="round"/>
<path d="M20.667 46.1877H44.667" stroke="#165EF0" stroke-width="1.7" stroke-miterlimit="10" stroke-linecap="round" stroke-linejoin="round"/>
<path d="M25.667 51.1877H38.667" stroke="#165EF0" stroke-width="1.7" stroke-miterlimit="10" stroke-linecap="round" stroke-linejoin="round"/>
<path d="M42.0419 7.50018H23.292L21.417 1.2502H43.9169L42.0419 7.50018Z" stroke="black" stroke-width="1.7" stroke-miterlimit="10" stroke-linecap="round" stroke-linejoin="round"/>
<path d="M19.667 35.0002L30.1446 24.8184L34.667 28.5001L45.264 17.0001M45.264 17.0001V23.6366M45.264 17.0001L39.167 18.0001" stroke="#FFBB17" stroke-width="1.8"/>
</svg>
