<svg width="65" height="64" viewBox="0 0 65 64" fill="none" xmlns="http://www.w3.org/2000/svg">
<g clip-path="url(#clip0_658_3906)">
<path d="M52.333 25.5772V18.4228H48.4778C48.063 16.5373 47.319 14.7398 46.2798 13.1127L49.0045 10.3875L43.9457 5.3285L41.221 8.053C39.5939 7.01395 37.7957 6.27006 35.9102 5.85517V2H28.7558V5.85967C26.8727 6.27638 25.0776 7.02154 23.453 8.061L20.7203 5.3285L15.6615 10.3873L18.3988 13.1247C17.364 14.7485 16.6226 16.5423 16.2087 18.4228H12.333V25.5772L16.2132 25.5773C16.629 27.4553 17.3715 29.2456 18.4068 30.8667L15.6615 33.6127L20.7203 38.6715L23.4657 35.9263C25.0868 36.9617 26.8778 37.704 28.7558 38.1198V42H35.9102V38.1243C37.7907 37.7104 39.5838 36.969 41.2077 35.9342L43.9457 38.6715L49.0045 33.6127L46.272 30.88C47.3114 29.2555 48.0565 27.4602 48.4733 25.5773L52.333 25.5772Z" stroke="#FFBB17" stroke-width="2.34001" stroke-miterlimit="10" stroke-linecap="round" stroke-linejoin="round"/>
<path d="M22.9537 19.0001H41.9623C43.9618 19.0001 45.583 20.6213 45.583 22.6208V59.9139C45.583 61.9134 43.9618 63.5346 41.9623 63.5346H22.9537C20.9542 63.5346 19.333 61.9134 19.333 59.9139V22.6208C19.333 20.6213 20.9542 19.0001 22.9537 19.0001Z" fill="white" stroke="black" stroke-width="1.7" stroke-miterlimit="10" stroke-linecap="round" stroke-linejoin="round"/>
<path d="M24.8447 53.0879H39.8447H24.8447Z" fill="white"/>
<path d="M24.8447 53.0879H39.8447" stroke="black" stroke-width="1.7" stroke-miterlimit="10" stroke-linecap="round" stroke-linejoin="round"/>
<path d="M24.8447 57.0879H39.8447H24.8447Z" fill="white"/>
<path d="M24.8447 57.0879H39.8447" stroke="black" stroke-width="1.7" stroke-miterlimit="10" stroke-linecap="round" stroke-linejoin="round"/>
<path d="M39.2469 23.5259H25.6693L24.3115 19H40.6046L39.2469 23.5259Z" fill="white" stroke="black" stroke-width="1.7" stroke-miterlimit="10" stroke-linecap="round" stroke-linejoin="round"/>
<path d="M32.333 35.2708L33.1967 37.7391L33.3725 38.2414H33.9046H36.5377L34.4565 39.6455L33.977 39.969L34.168 40.5149L34.993 42.8726L32.7525 41.361L32.333 41.0781L31.9136 41.361L29.673 42.8726L30.498 40.5149L30.6891 39.969L30.2096 39.6455L28.1283 38.2414H30.7614H31.2936L31.4693 37.7391L32.333 35.2708Z" fill="white" stroke="#165EF0" stroke-width="1.5"/>
</g>
<defs>
<clipPath id="clip0_658_3906">
<rect width="64" height="64" fill="white" transform="translate(0.333008)"/>
</clipPath>
</defs>
</svg>
