<svg width="64" height="64" viewBox="0 0 64 64" fill="none" xmlns="http://www.w3.org/2000/svg">
<path d="M7.99999 1H34.2499C37.0112 1 39.2499 3.23874 39.2499 5.99999V57.4998C39.2499 60.2611 37.0112 62.4998 34.2499 62.4998H7.99999C5.23874 62.4998 3 60.2611 3 57.4998V5.99999C3 3.23874 5.23874 1 7.99999 1Z" stroke="black" stroke-width="1.7" stroke-miterlimit="10" stroke-linecap="round" stroke-linejoin="round"/>
<path d="M9.125 49.9375H33.125" stroke="#165EF0" stroke-width="1.7" stroke-miterlimit="10" stroke-linecap="round" stroke-linejoin="round"/>
<path d="M14.125 54.9375H27.125" stroke="#165EF0" stroke-width="1.7" stroke-miterlimit="10" stroke-linecap="round" stroke-linejoin="round"/>
<path d="M30.4999 7.25H11.75L9.875 1.00002H32.3749L30.4999 7.25Z" stroke="black" stroke-width="1.7" stroke-miterlimit="10" stroke-linecap="round" stroke-linejoin="round"/>
<path d="M10.125 29.0833V19.75H19.3508V29.0833H10.125Z" stroke="black" stroke-width="1.7"/>
<path d="M22.8992 29.0833V19.75H32.125V29.0833H22.8992Z" stroke="black" stroke-width="1.7"/>
<path d="M10.125 41.75V32.4167H19.3508V41.75H10.125Z" stroke="black" stroke-width="1.7"/>
<path d="M22.8992 41.75V32.4167H32.125V41.75H22.8992Z" stroke="black" stroke-width="1.7"/>
<path d="M36.0689 49.5C43.3293 49.5 49.251 43.5783 49.251 36.318C49.251 29.0575 43.3293 23.1357 36.0689 23.1357C28.8085 23.1357 22.8867 29.0575 22.8867 36.318C22.8867 43.5783 28.8085 49.5 36.0689 49.5Z" fill="white"/>
<path d="M41.6934 42.2609C43.2685 40.7698 44.251 38.6591 44.251 36.3178L41.6934 42.2609Z" fill="white"/>
<path d="M50.2296 48.1884L47.9394 50.4787C47.3096 51.1084 47.3096 52.139 47.9394 52.7689L56.6986 61.528C57.3284 62.1579 58.359 62.1579 58.9887 61.528L61.2791 59.2379C61.9089 58.608 61.9089 57.5775 61.2791 56.9476L52.5198 48.1884C51.89 47.5585 50.8594 47.5587 50.2296 48.1884Z" fill="white"/>
<path d="M48.93 49.179L45.39 45.6391L48.93 49.179Z" fill="white"/>
<path d="M41.6934 42.2609C43.2685 40.7698 44.251 38.6591 44.251 36.3178M48.93 49.179L45.39 45.6391M36.0689 49.5C43.3293 49.5 49.251 43.5783 49.251 36.318C49.251 29.0575 43.3293 23.1357 36.0689 23.1357C28.8085 23.1357 22.8867 29.0575 22.8867 36.318C22.8867 43.5783 28.8085 49.5 36.0689 49.5ZM50.2296 48.1884L47.9394 50.4787C47.3096 51.1084 47.3096 52.139 47.9394 52.7689L56.6986 61.528C57.3284 62.1579 58.359 62.1579 58.9887 61.528L61.2791 59.2379C61.9089 58.608 61.9089 57.5775 61.2791 56.9476L52.5198 48.1884C51.89 47.5585 50.8594 47.5587 50.2296 48.1884Z" stroke="#FFBB17" stroke-width="1.8" stroke-miterlimit="22.926" stroke-linecap="round" stroke-linejoin="round"/>
</svg>
