<svg width="65" height="64" viewBox="0 0 65 64" fill="none" xmlns="http://www.w3.org/2000/svg">
<path fill-rule="evenodd" clip-rule="evenodd" d="M16.6817 8.58018C18.5645 8.58018 20.0964 7.04843 20.0964 5.1653C20.0964 3.28218 18.5645 1.75043 16.6817 1.75043C14.7984 1.75043 13.2665 3.28218 13.2665 5.1653C13.2665 7.04843 14.7982 8.58018 16.6817 8.58018ZM18.4772 5.1653C18.4772 4.17518 17.6715 3.36943 16.6817 3.36943C15.6914 3.36943 14.8856 4.17518 14.8856 5.1653C14.8856 6.15543 15.6914 6.96118 16.6817 6.96118C17.6715 6.96118 18.4772 6.15543 18.4772 5.1653Z" fill="#165EF0"/>
<path fill-rule="evenodd" clip-rule="evenodd" d="M7.68262 14.8689C7.68262 16.8548 9.29787 18.4707 11.2837 18.4707C13.2696 18.4707 14.8855 16.8548 14.8855 14.8689C14.8855 12.8831 13.2696 11.2674 11.2837 11.2674C9.29787 11.2674 7.68262 12.8831 7.68262 14.8689ZM11.2837 16.8517C12.3772 16.8517 13.2665 15.9621 13.2665 14.8689C13.2665 13.7758 12.3772 12.8866 11.2837 12.8866C10.1909 12.8866 9.30162 13.7757 9.30162 14.8689C9.30162 15.9622 10.1909 16.8517 11.2837 16.8517Z" fill="#165EF0"/>
<path fill-rule="evenodd" clip-rule="evenodd" d="M30.4489 9.47168C30.4489 7.58855 28.9171 6.0568 27.0342 6.0568C25.1509 6.0568 23.619 7.58855 23.619 9.47168C23.619 11.3548 25.1507 12.8866 27.0342 12.8866C28.917 12.8866 30.4489 11.3548 30.4489 9.47168ZM27.0342 7.6758C26.0439 7.6758 25.2381 8.48155 25.2381 9.47168C25.2381 10.4617 26.0439 11.2674 27.0342 11.2676C28.024 11.2676 28.8297 10.4618 28.8297 9.47168C28.8297 8.48155 28.024 7.6758 27.0342 7.6758Z" fill="#165EF0"/>
<path fill-rule="evenodd" clip-rule="evenodd" d="M19.2665 20.1653L20.8857 20.1842L20.8856 20.1653C20.8856 19.1752 21.6914 18.3694 22.6817 18.3694C23.6715 18.3694 24.4772 19.1752 24.4772 20.1653H26.0964C26.0964 18.2822 24.5645 16.7504 22.6817 16.7504C20.7984 16.7504 19.2665 18.2822 19.2665 20.1653Z" fill="#165EF0"/>
<path fill-rule="evenodd" clip-rule="evenodd" d="M2.61621 25.9232V22.0375C2.61621 20.7232 3.68509 19.6541 4.99934 19.6541H18.9452H20.6113H24.3465L25.9511 19.9466C26.0707 20.0877 26.1508 20.2641 26.1508 20.4636C26.1509 20.5699 26.1299 20.6752 26.0893 20.7734C26.0486 20.8716 25.9889 20.9609 25.9138 21.0361C25.8386 21.1112 25.7494 21.1709 25.6511 21.2115C25.5529 21.2522 25.4476 21.2731 25.3413 21.2731H4.99934C4.79673 21.2734 4.6025 21.354 4.45927 21.4973C4.31604 21.6406 4.2355 21.8349 4.23534 22.0375V25.1137H27.3233C27.7705 25.1137 28.1328 25.4761 28.1328 25.9232C28.1328 26.3704 27.7705 26.7327 27.3233 26.7327H5.08209L19.7955 45.6316C19.9042 45.7712 19.9642 45.9426 19.9662 46.1195L20.1407 61.1509C20.1437 61.496 20.4907 61.7136 20.7953 61.5926L28.245 58.9531C28.3961 58.8921 28.5163 58.7162 28.5213 58.5167L28.7028 46.1174C28.7055 45.9412 28.7654 45.7707 28.8736 45.6316L36.0101 36.4677C36.2846 36.1155 36.7943 36.0525 37.146 36.3264C37.3154 36.4583 37.4255 36.6521 37.452 36.8652C37.4786 37.0782 37.4194 37.2931 37.2876 37.4626L30.3181 46.4124L30.1403 58.5494C30.1182 59.4054 29.5983 60.1549 28.8153 60.4679L21.3632 63.1086C20.0576 63.6274 18.5326 62.6609 18.5216 61.1667L18.3502 46.4111L2.78696 26.4207C2.74946 26.3725 2.72296 26.3189 2.69771 26.265C2.69509 26.2594 2.69182 26.2543 2.68855 26.2493C2.68481 26.2435 2.68107 26.2377 2.67834 26.2311C2.64071 26.1397 2.61621 25.9885 2.61621 25.9232Z" fill="black"/>
<path d="M58.6422 9.15326L56.5552 7.06626C55.5528 6.06389 53.9204 6.06251 52.9167 7.06626L51.9776 8.00539C51.1229 7.54299 50.2228 7.17009 49.2916 6.89264V5.56476C49.2916 4.14589 48.1373 2.99164 46.7182 2.99164H43.7672C42.3479 2.99164 41.1938 4.14589 41.1938 5.56476V6.89289C40.2627 7.16998 39.3627 7.54281 38.5084 8.00539L37.5693 7.06589C36.5643 6.06214 34.9327 6.06376 33.9302 7.06626L31.8429 9.15326C30.8399 10.1563 30.8399 11.7886 31.8429 12.7924L32.7821 13.7315C32.3191 14.5858 31.9461 15.4858 31.6689 16.4171H30.3414C28.9222 16.4171 27.7681 17.5714 27.7681 18.9903V21.9415C27.7681 23.3604 28.9223 24.5149 30.3414 24.5149H31.6689C31.9465 25.4461 32.3195 26.3461 32.7821 27.2005L31.8429 28.1396C30.8399 29.1426 30.8399 30.7754 31.8429 31.7784L33.9301 33.8655C34.9331 34.8685 36.5661 34.8685 37.5692 33.8655L38.5077 32.9264C39.3622 33.3891 40.2623 33.762 41.1937 34.0391V35.367C41.1937 36.7859 42.3479 37.9404 43.7671 37.9404H46.7181C48.1373 37.9404 49.2914 36.7859 49.2914 35.367V34.0391C50.2228 33.7619 51.1229 33.389 51.9774 32.9264L52.9166 33.8655C53.9203 34.8689 55.5526 34.8683 56.5551 33.8655L58.6422 31.7784C59.6452 30.7754 59.6452 29.1426 58.6422 28.1396L57.7031 27.2005C58.1657 26.3461 58.5387 25.4461 58.8162 24.5149H60.1437C61.5629 24.5149 62.7171 23.3604 62.7171 21.9415V18.9903C62.7171 17.5714 61.5628 16.4171 60.1437 16.4171H58.8162C58.5391 15.4858 58.166 14.5858 57.7031 13.7315L58.6422 12.7924C59.6453 11.7888 59.6453 10.1564 58.6422 9.15326ZM57.4974 11.6476L56.1212 13.0235C55.9934 13.1512 55.912 13.318 55.89 13.4973C55.868 13.6767 55.9066 13.8582 55.9998 14.013C56.6374 15.0732 57.1136 16.2224 57.4127 17.4229C57.4564 17.5981 57.5574 17.7537 57.6998 17.8649C57.8421 17.9761 58.0176 18.0365 58.1982 18.0364H60.1436C60.6698 18.0364 61.0979 18.4643 61.0979 18.9904V21.9416C61.0979 22.4679 60.6698 22.896 60.1436 22.896H58.1982C58.0176 22.8959 57.8421 22.9563 57.6998 23.0675C57.5574 23.1786 57.4564 23.3343 57.4127 23.5095C57.1136 24.7098 56.6374 25.8589 55.9998 26.919C55.9067 27.0738 55.868 27.2554 55.89 27.4347C55.912 27.614 55.9934 27.7808 56.1212 27.9085L57.4974 29.2848C57.8693 29.6566 57.8693 30.2619 57.4974 30.6341L55.4103 32.7213C55.0384 33.0935 54.4332 33.0929 54.0613 32.7213L52.6851 31.345C52.5573 31.2173 52.3904 31.1359 52.2111 31.1139C52.0317 31.0919 51.8502 31.1306 51.6953 31.2236C50.6352 31.8612 49.4861 32.3374 48.2858 32.6365C48.1106 32.6802 47.955 32.7813 47.8438 32.9236C47.7326 33.066 47.6723 33.2414 47.6723 33.422V35.3674C47.6723 35.8936 47.2442 36.3218 46.7179 36.3218H43.7669C43.2407 36.3218 42.8126 35.8936 42.8126 35.3674V33.422C42.8126 33.2414 42.7522 33.066 42.641 32.9237C42.5299 32.7813 42.3743 32.6802 42.1991 32.6365C40.9987 32.3374 39.8496 31.8612 38.7896 31.2236C38.6347 31.1306 38.4531 31.092 38.2738 31.114C38.0945 31.136 37.9276 31.2173 37.7998 31.345L36.4242 32.7209C36.0517 33.0931 35.4458 33.0928 35.0746 32.7213L32.9874 30.6341C32.6156 30.2619 32.6156 29.6566 32.9874 29.2848L34.3637 27.9085C34.4915 27.7808 34.5729 27.614 34.5949 27.4347C34.6169 27.2554 34.5782 27.0738 34.4851 26.919C33.8475 25.8589 33.3713 24.7098 33.0722 23.5095C33.0285 23.3343 32.9275 23.1786 32.7851 23.0675C32.6428 22.9563 32.4673 22.8959 32.2867 22.896H30.3413C29.8151 22.896 29.3869 22.4679 29.3869 21.9416V18.9904C29.3869 18.4641 29.8151 18.0364 30.3413 18.0364H32.2867C32.4673 18.0365 32.6428 17.9761 32.7851 17.8649C32.9275 17.7538 33.0285 17.5982 33.0722 17.4229C33.3713 16.2224 33.8475 15.0732 34.4851 14.013C34.5782 13.8582 34.6168 13.6767 34.5948 13.4974C34.5728 13.318 34.4915 13.1512 34.3637 13.0235L32.9874 11.6476C32.6156 11.2754 32.6156 10.6701 32.9874 10.298L35.0746 8.21089C35.4458 7.83939 36.0517 7.83864 36.4242 8.21089L37.7998 9.58714C37.9274 9.71502 38.0941 9.79647 38.2734 9.81847C38.4527 9.84047 38.6342 9.80176 38.7889 9.70851C39.8494 9.07124 40.9986 8.59516 42.1991 8.29589C42.3743 8.25218 42.5299 8.15111 42.6411 8.00877C42.7522 7.86643 42.8126 7.691 42.8126 7.51039V5.56476C42.8126 5.03851 43.2407 4.61076 43.7669 4.61076H46.7179C47.2442 4.61076 47.6723 5.03864 47.6723 5.56476V7.51051C47.6723 7.69112 47.7327 7.86654 47.8438 8.00888C47.955 8.15121 48.1106 8.25228 48.2858 8.29601C49.4862 8.59494 50.6353 9.07105 51.6953 9.70864C51.8501 9.80185 52.0317 9.84054 52.2111 9.81854C52.3905 9.79654 52.5573 9.71512 52.6851 9.58726L54.0613 8.21101C54.4332 7.83951 55.0384 7.83876 55.4103 8.21101L57.4974 10.2981C57.8693 10.6703 57.8693 11.2755 57.4974 11.6476Z" fill="#FFBB17"/>
<path d="M45.2422 13.6927C41.507 13.6927 38.4688 16.7314 38.4688 20.4662C38.4688 24.2009 41.507 27.2394 45.2422 27.2394C48.9775 27.2394 52.0158 24.2007 52.0158 20.4662C52.0158 16.7312 48.9775 13.6927 45.2422 13.6927ZM45.2422 25.6202C42.4 25.6202 40.0879 23.308 40.0879 20.4661C40.0879 17.6239 42.4001 15.3117 45.2422 15.3117C48.0844 15.3117 50.3966 17.624 50.3966 20.4661C50.3966 23.3081 48.0845 25.6202 45.2422 25.6202Z" fill="#FFBB17"/>
</svg>
