<svg width="40" height="41" viewBox="0 0 40 41" fill="none" xmlns="http://www.w3.org/2000/svg">
<rect y="0.25" width="40" height="40" rx="10" fill="#F1F7FD"/>
<path fill-rule="evenodd" clip-rule="evenodd" d="M15.5672 9.09H24.4328C24.6855 9.08999 24.9358 9.13989 25.1692 9.23683C25.4026 9.33377 25.6146 9.47584 25.793 9.65489C25.9713 9.83395 26.1126 10.0465 26.2087 10.2802C26.3047 10.514 26.3537 10.7645 26.3528 11.0172V29.4828C26.3528 29.992 26.1505 30.4804 25.7904 30.8404C25.4303 31.2005 24.942 31.4028 24.4328 31.4028H15.5672C15.0579 31.4028 14.5696 31.2005 14.2095 30.8404C13.8494 30.4804 13.6472 29.992 13.6472 29.4828V11.01C13.6472 10.5008 13.8494 10.0124 14.2095 9.65235C14.5696 9.29228 15.0579 9.09 15.5672 9.09ZM25.2813 30.3385C25.5063 30.1135 25.6328 29.8083 25.6328 29.49L25.6472 27.474H14.3672V29.49C14.3672 29.8083 14.4936 30.1135 14.7186 30.3385C14.9437 30.5636 15.2489 30.69 15.5672 30.69H24.4328C24.751 30.69 25.0562 30.5636 25.2813 30.3385ZM14.3528 26.754H25.6328V12.1404H14.3528V26.754ZM14.3528 11.4276H25.6328V11.0172C25.6328 10.6989 25.5063 10.3937 25.2813 10.1687C25.0562 9.94362 24.751 9.8172 24.4328 9.8172H15.5528C15.2345 9.8172 14.9293 9.94362 14.7042 10.1687C14.4792 10.3937 14.3528 10.6989 14.3528 11.0172V11.4276Z" fill="black"/>
<path fill-rule="evenodd" clip-rule="evenodd" d="M19.0112 30.0756H20.9888C21.1199 30.0756 21.2497 30.0498 21.3708 29.9996C21.492 29.9494 21.602 29.8759 21.6947 29.7832C21.7874 29.6905 21.861 29.5804 21.9112 29.4593C21.9613 29.3381 21.9872 29.2083 21.9872 29.0772C21.9872 28.9461 21.9613 28.8163 21.9112 28.6951C21.861 28.574 21.7874 28.4639 21.6947 28.3712C21.602 28.2785 21.492 28.205 21.3708 28.1548C21.2497 28.1046 21.1199 28.0788 20.9888 28.0788H19.0112C18.7464 28.0788 18.4924 28.184 18.3052 28.3712C18.1179 28.5585 18.0128 28.8124 18.0128 29.0772C18.0128 29.342 18.1179 29.5959 18.3052 29.7832C18.4924 29.9704 18.7464 30.0756 19.0112 30.0756ZM20.9888 28.7988H19.0112C18.9373 28.7988 18.8665 28.8281 18.8143 28.8803C18.7621 28.9325 18.7328 29.0034 18.7328 29.0772C18.7328 29.151 18.7621 29.2218 18.8143 29.2741C18.8665 29.3263 18.9373 29.3556 19.0112 29.3556H20.9888C21.0253 29.3556 21.0615 29.3484 21.0953 29.3344C21.1291 29.3204 21.1598 29.2999 21.1856 29.2741C21.2115 29.2482 21.232 29.2175 21.246 29.1837C21.26 29.15 21.2672 29.1138 21.2672 29.0772C21.2672 29.0406 21.26 29.0044 21.246 28.9707C21.232 28.9369 21.2115 28.9062 21.1856 28.8803C21.1598 28.8545 21.1291 28.834 21.0953 28.82C21.0615 28.806 21.0253 28.7988 20.9888 28.7988Z" fill="#165EF0"/>
<path d="M20.0105 21.2035C19.99 21.2034 19.9696 21.2073 19.9506 21.2151C19.9316 21.2229 19.9143 21.2343 19.8997 21.2487C19.8851 21.2632 19.8735 21.2804 19.8655 21.2993C19.8576 21.3182 19.8534 21.3385 19.8533 21.3591C19.8529 21.4453 19.9225 21.5156 20.0088 21.5161C20.0951 21.5165 20.1654 21.4469 20.1659 21.3606C20.1663 21.2743 20.0967 21.204 20.0105 21.2035ZM20.025 18.3909C19.5932 18.3886 19.2419 18.7363 19.2396 19.1682C19.2374 19.5988 19.586 19.9512 20.0169 19.9535C20.4476 19.9556 20.8 19.6071 20.8023 19.1763C20.8045 18.7445 20.4569 18.3931 20.025 18.3909ZM20.4897 19.1746C20.4884 19.433 20.277 19.6423 20.0185 19.641C19.76 19.6396 19.5508 19.4282 19.5521 19.1698C19.5535 18.9107 19.7643 18.7021 20.0234 18.7034C20.2824 18.7047 20.4911 18.9155 20.4897 19.1746Z" fill="#FFBB17"/>
<path d="M20.038 15.8906C20.0165 15.8905 19.9952 15.8948 19.9755 15.9033C19.9558 15.9117 19.938 15.9242 19.9233 15.9398C19.8991 15.9656 19.325 16.5814 18.8628 17.536C18.4923 18.3008 18.3025 19.0586 18.2987 19.7883C18.2979 19.9538 18.3041 20.1193 18.3172 20.2843C17.7433 20.4297 17.519 20.7842 17.4326 21.0643C17.2336 21.7093 17.5801 22.583 18.0151 23.0226C18.0443 23.052 18.084 23.0687 18.1254 23.0689C18.1668 23.0691 18.2067 23.0529 18.2361 23.0237C18.2507 23.0093 18.2623 22.9921 18.2703 22.9732C18.2783 22.9543 18.2824 22.934 18.2825 22.9135C18.2848 22.4696 18.5738 22.2113 18.6753 22.1342L18.7527 22.1346C18.8564 22.3925 18.974 22.6347 19.1031 22.8556C19.1499 22.9355 19.2222 22.9975 19.3075 23.0352C19.2494 23.1903 19.2178 23.3648 19.2169 23.5435C19.2139 24.1124 19.8454 24.8666 19.8723 24.8984C19.8869 24.9157 19.905 24.9296 19.9255 24.9391C19.946 24.9487 19.9683 24.9537 19.9909 24.9539C20.0135 24.954 20.0358 24.9492 20.0564 24.9398C20.077 24.9305 20.0952 24.9168 20.11 24.8997C20.1372 24.8681 20.7766 24.1205 20.7795 23.5516C20.7805 23.373 20.7507 23.1982 20.6942 23.0425C20.7849 23.0036 20.8553 22.9402 20.9005 22.8648C21.0318 22.6454 21.1519 22.4045 21.2583 22.1476L21.3357 22.148C21.4365 22.2262 21.7227 22.4876 21.7204 22.9313C21.7202 22.9622 21.7292 22.9925 21.7463 23.0183C21.7633 23.0441 21.7876 23.0642 21.8161 23.0762C21.8446 23.0882 21.876 23.0914 21.9063 23.0855C21.9367 23.0797 21.9646 23.0649 21.9865 23.0432C22.4262 22.6081 22.7817 21.7381 22.5894 21.0911C22.506 20.8102 22.2853 20.4533 21.713 20.302C21.7278 20.1371 21.7357 19.9717 21.7367 19.8061C21.7405 19.0764 21.5585 18.3167 21.196 17.5482C20.7438 16.5888 20.176 15.967 20.1521 15.941C20.1227 15.9091 20.0814 15.8909 20.038 15.8906ZM18.027 22.5379C17.7656 22.1357 17.6034 21.571 17.7313 21.1564C17.8167 20.8794 18.0248 20.6923 18.3503 20.599C18.4049 21.0149 18.5007 21.4245 18.6365 21.8215C18.6338 21.8221 18.5889 21.8167 18.5435 21.8451C18.5248 21.8568 18.1684 22.0844 18.027 22.5379ZM20.467 23.55C20.4654 23.8539 20.1869 24.289 19.993 24.5459C19.8018 24.2869 19.5278 23.849 19.5294 23.5451C19.5303 23.375 19.5653 23.212 19.6288 23.0768L20.3725 23.0807C20.4346 23.2165 20.4679 23.3798 20.467 23.55ZM20.6323 22.7043C20.6083 22.7443 20.5591 22.7691 20.5041 22.7688L19.5005 22.7636C19.4454 22.7633 19.3965 22.738 19.3729 22.6978C19.2714 22.524 19.1772 22.3359 19.0918 22.1363L20.9192 22.1458C20.8317 22.3445 20.7356 22.5317 20.6323 22.7043ZM22.2899 21.1801C22.4134 21.596 22.2454 22.159 21.9798 22.5585C21.8879 22.2528 21.659 21.9745 21.4671 21.8584C21.4225 21.8314 21.3812 21.8365 21.3778 21.8357C21.5176 21.4401 21.6177 21.0316 21.6766 20.6162C22.0012 20.713 22.2073 20.9022 22.2899 21.1801ZM21.4242 19.8045C21.4229 20.0064 21.411 20.2082 21.3882 20.4088C21.3333 20.8941 21.2182 21.373 21.046 21.834L18.9683 21.8232C18.8009 21.3604 18.6908 20.8804 18.6409 20.3946C18.6202 20.1923 18.6102 19.9889 18.6112 19.7898C18.6146 19.1352 18.7801 18.453 19.1024 17.7609L20.9541 17.7706C21.2692 18.4659 21.4276 19.1497 21.4242 19.8045ZM20.8022 17.4572L19.2576 17.4492C19.5505 16.8992 19.8698 16.4859 20.036 16.2864C20.2001 16.4876 20.515 16.9043 20.8022 17.4572Z" fill="#FFBB17"/>
<path d="M21.5616 23.3993C21.4753 23.3989 21.405 23.4685 21.4045 23.5548L21.4014 24.1799C21.401 24.2662 21.4706 24.3365 21.5569 24.3369C21.6432 24.3373 21.7135 24.2677 21.7139 24.1814L21.7171 23.5564C21.7175 23.4701 21.6479 23.3998 21.5616 23.3993ZM18.4364 23.3831C18.3501 23.3826 18.2798 23.4522 18.2793 23.5385L18.276 24.1635C18.2755 24.2498 18.3451 24.3202 18.4314 24.3207C18.5176 24.3211 18.588 24.2516 18.5885 24.1652L18.5918 23.5402C18.5923 23.4539 18.5227 23.3835 18.4364 23.3831ZM20.9318 24.3337C20.8455 24.3332 20.7752 24.4029 20.7747 24.4892L20.7668 25.986C20.7664 26.0723 20.836 26.1427 20.9223 26.1431C21.0085 26.1436 21.0789 26.074 21.0793 25.9877L21.0872 24.4908C21.0877 24.4045 21.0181 24.3342 20.9318 24.3337ZM20.0432 25.2131C19.957 25.2126 19.8866 25.2822 19.8862 25.3685L19.8783 26.8654C19.8778 26.9517 19.9474 27.022 20.0337 27.0225C20.12 27.0229 20.1903 26.9533 20.1908 26.867L20.1987 25.3702C20.1991 25.2838 20.1295 25.2135 20.0432 25.2131ZM19.0565 24.3239C18.9702 24.3235 18.8998 24.3931 18.8994 24.4794L18.8917 25.9763C18.8913 26.0626 18.9609 26.1329 19.0472 26.1334C19.1335 26.1338 19.2038 26.0642 19.2042 25.9779L19.2119 24.481C19.2124 24.3947 19.1428 24.3244 19.0565 24.3239ZM20.0153 20.2659C19.9289 20.2655 19.8586 20.3351 19.8582 20.4214L19.8565 20.7339C19.8561 20.8202 19.9257 20.8905 20.012 20.891C20.0983 20.8914 20.1686 20.8218 20.1691 20.7355L20.1707 20.423C20.1712 20.3367 20.1016 20.2664 20.0153 20.2659Z" fill="#FFBB17"/>
<path d="M20.0105 21.2035C19.99 21.2034 19.9696 21.2073 19.9506 21.2151C19.9316 21.2229 19.9143 21.2343 19.8997 21.2487C19.8851 21.2632 19.8735 21.2804 19.8655 21.2993C19.8576 21.3182 19.8534 21.3385 19.8533 21.3591C19.8529 21.4453 19.9225 21.5156 20.0088 21.5161C20.0951 21.5165 20.1654 21.4469 20.1659 21.3606C20.1663 21.2743 20.0967 21.204 20.0105 21.2035ZM20.025 18.3909C19.5932 18.3886 19.2419 18.7363 19.2396 19.1682C19.2374 19.5988 19.586 19.9512 20.0169 19.9535C20.4476 19.9556 20.8 19.6071 20.8023 19.1763C20.8045 18.7445 20.4569 18.3931 20.025 18.3909ZM20.4897 19.1746C20.4884 19.433 20.277 19.6423 20.0185 19.641C19.76 19.6396 19.5508 19.4282 19.5521 19.1698C19.5535 18.9107 19.7643 18.7021 20.0234 18.7034C20.2824 18.7047 20.4911 18.9155 20.4897 19.1746Z" stroke="#FFBB17" stroke-width="0.1875"/>
<path d="M20.038 15.8906C20.0165 15.8905 19.9952 15.8948 19.9755 15.9033C19.9558 15.9117 19.938 15.9242 19.9233 15.9398C19.8991 15.9656 19.325 16.5814 18.8628 17.536C18.4923 18.3008 18.3025 19.0586 18.2987 19.7883C18.2979 19.9538 18.3041 20.1193 18.3172 20.2843C17.7433 20.4297 17.519 20.7842 17.4326 21.0643C17.2336 21.7093 17.5801 22.583 18.0151 23.0226C18.0443 23.052 18.084 23.0687 18.1254 23.0689C18.1668 23.0691 18.2067 23.0529 18.2361 23.0237C18.2507 23.0093 18.2623 22.9921 18.2703 22.9732C18.2783 22.9543 18.2824 22.934 18.2825 22.9135C18.2848 22.4696 18.5738 22.2113 18.6753 22.1342L18.7527 22.1346C18.8564 22.3925 18.974 22.6347 19.1031 22.8556C19.1499 22.9355 19.2222 22.9975 19.3075 23.0352C19.2494 23.1903 19.2178 23.3648 19.2169 23.5435C19.2139 24.1124 19.8454 24.8666 19.8723 24.8984C19.8869 24.9157 19.905 24.9296 19.9255 24.9391C19.946 24.9487 19.9683 24.9537 19.9909 24.9539C20.0135 24.954 20.0358 24.9492 20.0564 24.9398C20.077 24.9305 20.0952 24.9168 20.11 24.8997C20.1372 24.8681 20.7766 24.1205 20.7795 23.5516C20.7805 23.373 20.7507 23.1982 20.6942 23.0425C20.7849 23.0036 20.8553 22.9402 20.9005 22.8648C21.0318 22.6454 21.1519 22.4045 21.2583 22.1476L21.3357 22.148C21.4365 22.2262 21.7227 22.4876 21.7204 22.9313C21.7202 22.9622 21.7292 22.9925 21.7463 23.0183C21.7633 23.0441 21.7876 23.0642 21.8161 23.0762C21.8446 23.0882 21.876 23.0914 21.9063 23.0855C21.9367 23.0797 21.9646 23.0649 21.9865 23.0432C22.4262 22.6081 22.7817 21.7381 22.5894 21.0911C22.506 20.8102 22.2853 20.4533 21.713 20.302C21.7278 20.1371 21.7357 19.9717 21.7367 19.8061C21.7405 19.0764 21.5585 18.3167 21.196 17.5482C20.7438 16.5888 20.176 15.967 20.1521 15.941C20.1227 15.9091 20.0814 15.8909 20.038 15.8906ZM18.027 22.5379C17.7656 22.1357 17.6034 21.571 17.7313 21.1564C17.8167 20.8794 18.0248 20.6923 18.3503 20.599C18.4049 21.0149 18.5007 21.4245 18.6365 21.8215C18.6338 21.8221 18.5889 21.8167 18.5435 21.8451C18.5248 21.8568 18.1684 22.0844 18.027 22.5379ZM20.467 23.55C20.4654 23.8539 20.1869 24.289 19.993 24.5459C19.8018 24.2869 19.5278 23.849 19.5294 23.5451C19.5303 23.375 19.5653 23.212 19.6288 23.0768L20.3725 23.0807C20.4346 23.2165 20.4679 23.3798 20.467 23.55ZM20.6323 22.7043C20.6083 22.7443 20.5591 22.7691 20.5041 22.7688L19.5005 22.7636C19.4454 22.7633 19.3965 22.738 19.3729 22.6978C19.2714 22.524 19.1772 22.3359 19.0918 22.1363L20.9192 22.1458C20.8317 22.3445 20.7356 22.5317 20.6323 22.7043ZM22.2899 21.1801C22.4134 21.596 22.2454 22.159 21.9798 22.5585C21.8879 22.2528 21.659 21.9745 21.4671 21.8584C21.4225 21.8314 21.3812 21.8365 21.3778 21.8357C21.5176 21.4401 21.6177 21.0316 21.6766 20.6162C22.0012 20.713 22.2073 20.9022 22.2899 21.1801ZM21.4242 19.8045C21.4229 20.0064 21.411 20.2082 21.3882 20.4088C21.3333 20.8941 21.2182 21.373 21.046 21.834L18.9683 21.8232C18.8009 21.3604 18.6908 20.8804 18.6409 20.3946C18.6202 20.1923 18.6102 19.9889 18.6112 19.7898C18.6146 19.1352 18.7801 18.453 19.1024 17.7609L20.9541 17.7706C21.2692 18.4659 21.4276 19.1497 21.4242 19.8045ZM20.8022 17.4572L19.2576 17.4492C19.5505 16.8992 19.8698 16.4859 20.036 16.2864C20.2001 16.4876 20.515 16.9043 20.8022 17.4572Z" stroke="#FFBB17" stroke-width="0.1875"/>
<path d="M21.5616 23.3993C21.4753 23.3989 21.405 23.4685 21.4045 23.5548L21.4014 24.1799C21.401 24.2662 21.4706 24.3365 21.5569 24.3369C21.6432 24.3373 21.7135 24.2677 21.7139 24.1814L21.7171 23.5564C21.7175 23.4701 21.6479 23.3998 21.5616 23.3993ZM18.4364 23.3831C18.3501 23.3826 18.2798 23.4522 18.2793 23.5385L18.276 24.1635C18.2755 24.2498 18.3451 24.3202 18.4314 24.3207C18.5176 24.3211 18.588 24.2516 18.5885 24.1652L18.5918 23.5402C18.5923 23.4539 18.5227 23.3835 18.4364 23.3831ZM20.9318 24.3337C20.8455 24.3332 20.7752 24.4029 20.7747 24.4892L20.7668 25.986C20.7664 26.0723 20.836 26.1427 20.9223 26.1431C21.0085 26.1436 21.0789 26.074 21.0793 25.9877L21.0872 24.4908C21.0877 24.4045 21.0181 24.3342 20.9318 24.3337ZM20.0432 25.2131C19.957 25.2126 19.8866 25.2822 19.8862 25.3685L19.8783 26.8654C19.8778 26.9517 19.9474 27.022 20.0337 27.0225C20.12 27.0229 20.1903 26.9533 20.1908 26.867L20.1987 25.3702C20.1991 25.2838 20.1295 25.2135 20.0432 25.2131ZM19.0565 24.3239C18.9702 24.3235 18.8998 24.3931 18.8994 24.4794L18.8917 25.9763C18.8913 26.0626 18.9609 26.1329 19.0472 26.1334C19.1335 26.1338 19.2038 26.0642 19.2042 25.9779L19.2119 24.481C19.2124 24.3947 19.1428 24.3244 19.0565 24.3239ZM20.0153 20.2659C19.9289 20.2655 19.8586 20.3351 19.8582 20.4214L19.8565 20.7339C19.8561 20.8202 19.9257 20.8905 20.012 20.891C20.0983 20.8914 20.1686 20.8218 20.1691 20.7355L20.1707 20.423C20.1712 20.3367 20.1016 20.2664 20.0153 20.2659Z" stroke="#FFBB17" stroke-width="0.1875"/>
</svg>
