<svg width="18" height="18" viewBox="0 0 18 18" fill="none" xmlns="http://www.w3.org/2000/svg">
<path d="M2.87476 16.8748C2.39151 17.3581 1.60801 17.3581 1.12476 16.8748C0.641507 16.3916 0.641507 15.6081 1.12476 15.1248L7.24976 8.99983L1.12476 2.87483C0.641506 2.39158 0.641507 1.60808 1.12476 1.12483C1.60801 0.641577 2.39151 0.641577 2.87476 1.12483L8.99976 7.24983L15.1248 1.12483C15.608 0.641576 16.3915 0.641577 16.8748 1.12483C17.358 1.60808 17.358 2.39158 16.8748 2.87483L10.7498 8.99983L16.8748 15.1248C17.358 15.6081 17.358 16.3916 16.8748 16.8748C16.3915 17.3581 15.608 17.3581 15.1248 16.8748L8.99976 10.7498L2.87476 16.8748Z" fill="black"/>
</svg>
