<svg width="40" height="41" viewBox="0 0 40 41" fill="none" xmlns="http://www.w3.org/2000/svg">
<rect y="0.25" width="40" height="40" rx="10" fill="#F1F7FD"/>
<path d="M19.6969 24.6302C19.5766 24.7506 19.5682 24.9374 19.6783 25.0475C19.7883 25.1575 19.9751 25.1491 20.0955 25.0288C20.2512 24.8731 20.2337 24.7311 20.1764 24.5493C20.1192 24.3674 20.1017 24.2254 20.2574 24.0698C20.3778 23.9494 20.5646 23.941 20.6746 24.0511C20.7847 24.1611 20.7763 24.3479 20.6559 24.4683" stroke="#FFBB17" stroke-width="0.375" stroke-miterlimit="10" stroke-linecap="round" stroke-linejoin="round"/>
<path d="M20.7743 23.9515L20.6746 24.0511" stroke="#FFBB17" stroke-width="0.375" stroke-miterlimit="10" stroke-linecap="round" stroke-linejoin="round"/>
<path d="M19.6782 25.0475L19.5786 25.1472" stroke="#FFBB17" stroke-width="0.375" stroke-miterlimit="10" stroke-linecap="round" stroke-linejoin="round"/>
<path d="M21.2279 24.7955C21.1346 24.9515 21.016 25.1046 20.8738 25.2467C20.2685 25.852 19.4655 26.0305 19.0803 25.6453C18.6951 25.2601 18.8736 24.4571 19.4789 23.8518C20.0842 23.2465 20.8872 23.0681 21.2724 23.4533C21.4588 23.6397 21.5132 23.924 21.4511 24.2364" stroke="#FFBB17" stroke-width="0.375" stroke-miterlimit="10" stroke-linecap="round" stroke-linejoin="round"/>
<path d="M21.2723 23.4532L21.6709 23.8518C22.0561 24.237 21.8777 25.0399 21.2723 25.6453C20.667 26.2506 19.8641 26.429 19.4789 26.0438L19.0803 25.6453" stroke="#FFBB17" stroke-width="0.375" stroke-miterlimit="10" stroke-linecap="round" stroke-linejoin="round"/>
<path d="M21.275 9.47473C21.669 9.57643 22.0466 9.73319 22.3968 9.94037L22.7507 9.58637C22.818 9.51901 22.898 9.46557 22.986 9.42912C23.074 9.39268 23.1683 9.37392 23.2635 9.37395C23.3587 9.37395 23.453 9.39271 23.5409 9.42915C23.6289 9.4656 23.7088 9.51903 23.7761 9.58637L24.2886 10.099C24.356 10.1662 24.4094 10.2462 24.4459 10.3341C24.4823 10.4221 24.5011 10.5163 24.5011 10.6115C24.5011 10.7068 24.4823 10.8011 24.4459 10.8891C24.4094 10.977 24.356 11.057 24.2886 11.1243L23.9347 11.4783C24.1418 11.8284 24.2986 12.2061 24.4003 12.6H24.9C25.3004 12.6 25.625 12.9247 25.625 13.325V14.05C25.625 14.4504 25.3004 14.775 24.9 14.775H24.4003C24.2986 15.169 24.1418 15.5466 23.9347 15.8968L24.2886 16.2508C24.356 16.3181 24.4094 16.398 24.4459 16.486C24.4823 16.574 24.5011 16.6683 24.5011 16.7635C24.5011 16.8587 24.4823 16.953 24.4459 17.041C24.4094 17.1289 24.356 17.2088 24.2886 17.2761L23.7761 17.7887C23.7088 17.856 23.6289 17.9094 23.5409 17.9459C23.453 17.9823 23.3587 18.0011 23.2635 18.0011C23.1683 18.0011 23.074 17.9824 22.986 17.9459C22.898 17.9095 22.818 17.856 22.7507 17.7887L22.3968 17.4347C22.0466 17.6419 21.669 17.7986 21.275 17.9003V18.4C21.275 18.8004 20.9504 19.125 20.55 19.125H19.825C19.4246 19.125 19.1 18.8004 19.1 18.4V17.9003C18.706 17.7986 18.3284 17.6419 17.9782 17.4347L17.6242 17.7887C17.5569 17.856 17.477 17.9095 17.389 17.9459C17.301 17.9824 17.2067 18.0011 17.1115 18.0011C17.0163 18.0011 16.922 17.9823 16.8341 17.9459C16.7461 17.9094 16.6662 17.856 16.5989 17.7887L16.0863 17.2761C16.019 17.2088 15.9656 17.1289 15.9291 17.041C15.8927 16.953 15.8739 16.8587 15.8739 16.7635C15.8739 16.6683 15.8926 16.574 15.9291 16.486C15.9655 16.398 16.019 16.3181 16.0863 16.2508L16.4403 15.8968C16.2332 15.5466 16.0764 15.169 15.9747 14.775H15.475C15.0746 14.775 14.75 14.4504 14.75 14.05V13.325C14.75 12.9247 15.0746 12.6 15.475 12.6H15.9747C16.0764 12.2061 16.2332 11.8284 16.4403 11.4783L16.0863 11.1243C16.019 11.057 15.9655 10.977 15.9291 10.889C15.8926 10.8011 15.8739 10.7068 15.8739 10.6115C15.8739 10.5163 15.8927 10.4221 15.9291 10.3341C15.9656 10.2462 16.019 10.1663 16.0863 10.099L16.5989 9.58637C16.6662 9.51902 16.7461 9.4656 16.8341 9.42915C16.922 9.3927 17.0163 9.37394 17.1115 9.37395C17.2067 9.37393 17.301 9.39268 17.389 9.42912C17.477 9.46557 17.5569 9.51901 17.6242 9.58637L17.9782 9.94037C18.3284 9.73319 18.706 9.57643 19.1 9.47473V8.97502C19.1 8.57463 19.4246 8.25003 19.825 8.25003H20.55C20.9504 8.25003 21.275 8.57463 21.275 8.97502V9.47473Z" stroke="#165EF0" stroke-width="0.5625" stroke-miterlimit="10" stroke-linecap="round" stroke-linejoin="round"/>
<path d="M20.1874 11.5125C21.3878 11.5125 22.3624 12.4871 22.3624 13.6875C22.3624 14.8879 21.3878 15.8625 20.1874 15.8625C18.987 15.8625 18.0124 14.8879 18.0124 13.6875C18.0124 12.4871 18.987 11.5125 20.1874 11.5125Z" stroke="#165EF0" stroke-width="0.5625" stroke-miterlimit="10" stroke-linecap="round" stroke-linejoin="round"/>
<path d="M10.9963 13.6838L28.9963 13.5038C29.2048 13.5017 29.375 13.6702 29.375 13.8788V15.5625C29.375 15.7696 29.2071 15.9375 29 15.9375H28.625L22.25 21.375V23.625L17.75 26.4375L17.9375 21.375L11.375 15.9375H11C10.7929 15.9375 10.625 15.7696 10.625 15.5625V14.0588C10.625 13.8531 10.7906 13.6858 10.9963 13.6838Z" fill="white"/>
<path d="M28.625 15.9375H29C29.2071 15.9375 29.375 15.7696 29.375 15.5625V13.8788C29.375 13.6702 29.2048 13.5017 28.9962 13.5038L10.9963 13.6838C10.7906 13.6858 10.625 13.8531 10.625 14.0588V15.5625C10.625 15.7696 10.7929 15.9375 11 15.9375H11.375M28.625 15.9375L22.25 21.375M28.625 15.9375H11.375M22.25 21.375H17.9375M22.25 21.375V23.625L17.75 26.4375L17.9375 21.375M17.9375 21.375L11.375 15.9375" stroke="black" stroke-width="0.5625"/>
<path d="M22.2177 30.1144C22.338 30.2348 22.5248 30.2432 22.6349 30.1331C22.745 30.0231 22.7366 29.8363 22.6162 29.7159C22.4605 29.5602 22.3185 29.5776 22.1367 29.6349C21.9549 29.6922 21.8129 29.7097 21.6572 29.554C21.5368 29.4336 21.5285 29.2468 21.6385 29.1367C21.7486 29.0267 21.9354 29.035 22.0558 29.1554" stroke="#FFBB17" stroke-width="0.375" stroke-miterlimit="10" stroke-linecap="round" stroke-linejoin="round"/>
<path d="M21.539 29.0371L21.6386 29.1367" stroke="#FFBB17" stroke-width="0.375" stroke-miterlimit="10" stroke-linecap="round" stroke-linejoin="round"/>
<path d="M22.6351 30.1332L22.7347 30.2328" stroke="#FFBB17" stroke-width="0.375" stroke-miterlimit="10" stroke-linecap="round" stroke-linejoin="round"/>
<path d="M21.4393 30.3324C22.0447 30.9377 22.8476 31.1161 23.2328 30.7309C23.618 30.3458 23.4396 29.5428 22.8343 28.9375C22.2289 28.3322 21.426 28.1537 21.0408 28.5389C20.6556 28.9241 20.834 29.7271 21.4393 30.3324Z" stroke="#FFBB17" stroke-width="0.375" stroke-miterlimit="10" stroke-linecap="round" stroke-linejoin="round"/>
<path d="M21.0407 28.539L20.6422 28.9375C20.257 29.3227 20.4354 30.1257 21.0407 30.731C21.646 31.3363 22.449 31.5148 22.8342 31.1296L23.2327 30.731" stroke="#FFBB17" stroke-width="0.375" stroke-miterlimit="10" stroke-linecap="round" stroke-linejoin="round"/>
<path d="M18.4415 30.1358C18.2713 30.1376 18.1346 30.2652 18.1363 30.4208C18.1379 30.5764 18.2772 30.7012 18.4475 30.6994C18.6676 30.697 18.7545 30.5834 18.8408 30.4134C18.927 30.2434 19.0139 30.1297 19.2341 30.1274C19.4043 30.1256 19.5436 30.2503 19.5453 30.4059C19.5469 30.5616 19.4103 30.6892 19.24 30.691" stroke="#FFBB17" stroke-width="0.375" stroke-miterlimit="10" stroke-linecap="round" stroke-linejoin="round"/>
<path d="M19.6861 30.4045L19.5452 30.4059" stroke="#FFBB17" stroke-width="0.375" stroke-miterlimit="10" stroke-linecap="round" stroke-linejoin="round"/>
<path d="M18.1363 30.4208L17.9954 30.4222" stroke="#FFBB17" stroke-width="0.375" stroke-miterlimit="10" stroke-linecap="round" stroke-linejoin="round"/>
<path d="M19.4841 29.5117C19.2851 29.455 19.0635 29.4246 18.8302 29.427C17.9742 29.4361 17.285 29.885 17.2907 30.4297C17.2965 30.9745 17.9951 31.4087 18.8511 31.3997C19.707 31.3906 20.3963 30.9417 20.3905 30.397C20.3879 30.1491 20.2419 29.9242 20.0029 29.7534" stroke="#FFBB17" stroke-width="0.375" stroke-miterlimit="10" stroke-linecap="round" stroke-linejoin="round"/>
<path d="M20.3907 30.3971L20.3847 29.8335C20.379 29.2888 19.6804 28.8545 18.8244 28.8635C17.9684 28.8726 17.2791 29.3215 17.2849 29.8662L17.2909 30.4298" stroke="#FFBB17" stroke-width="0.375" stroke-miterlimit="10" stroke-linecap="round" stroke-linejoin="round"/>
</svg>
