<svg width="65" height="64" viewBox="0 0 65 64" fill="none" xmlns="http://www.w3.org/2000/svg">
<path fill-rule="evenodd" clip-rule="evenodd" d="M20.5126 2.23999H44.1542C44.8282 2.23999 45.4955 2.37305 46.118 2.63156C46.7404 2.89006 47.3057 3.26891 47.7814 3.74639C48.2571 4.22386 48.6338 4.79055 48.89 5.41395C49.1461 6.03736 49.2767 6.70521 49.2742 7.37919V56.6208C49.2742 57.9787 48.7347 59.281 47.7746 60.2412C46.8144 61.2014 45.5121 61.7408 44.1542 61.7408H20.5126C19.1547 61.7408 17.8524 61.2014 16.8922 60.2412C15.932 59.281 15.3926 57.9787 15.3926 56.6208V7.35999C15.3926 6.00208 15.932 4.69979 16.8922 3.7396C17.8524 2.77942 19.1547 2.23999 20.5126 2.23999ZM46.4169 58.9027C47.017 58.3026 47.3542 57.4887 47.3542 56.64L47.3926 51.264H17.3126V56.64C17.3126 57.4887 17.6497 58.3026 18.2498 58.9027C18.85 59.5028 19.6639 59.84 20.5126 59.84H44.1542C45.0029 59.84 45.8168 59.5028 46.4169 58.9027ZM17.2742 49.344H47.3542V10.3744H17.2742V49.344ZM17.2742 8.47359H47.3542V7.37919C47.3542 6.5305 47.017 5.71657 46.4169 5.11645C45.8168 4.51633 45.0029 4.17919 44.1542 4.17919H20.4742C19.6255 4.17919 18.8116 4.51633 18.2114 5.11645C17.6113 5.71657 17.2742 6.5305 17.2742 7.37919V8.47359Z" fill="black"/>
<path fill-rule="evenodd" clip-rule="evenodd" d="M29.6966 58.2016H34.9702C35.3198 58.2016 35.666 58.1327 35.989 57.9989C36.312 57.8651 36.6056 57.669 36.8528 57.4218C37.1 57.1746 37.2961 56.8811 37.4299 56.558C37.5637 56.235 37.6326 55.8888 37.6326 55.5392C37.6326 55.1896 37.5637 54.8433 37.4299 54.5203C37.2961 54.1973 37.1 53.9038 36.8528 53.6566C36.6056 53.4094 36.312 53.2132 35.989 53.0795C35.666 52.9457 35.3198 52.8768 34.9702 52.8768H29.6966C28.9905 52.8768 28.3133 53.1573 27.814 53.6566C27.3147 54.1559 27.0342 54.8331 27.0342 55.5392C27.0342 56.2453 27.3147 56.9225 27.814 57.4218C28.3133 57.9211 28.9905 58.2016 29.6966 58.2016ZM34.9702 54.7968H29.6966C29.4997 54.7968 29.3108 54.875 29.1716 55.0142C29.0324 55.1535 28.9542 55.3423 28.9542 55.5392C28.9542 55.7361 29.0324 55.9249 29.1716 56.0641C29.3108 56.2034 29.4997 56.2816 29.6966 56.2816H34.9702C35.0677 56.2816 35.1642 56.2624 35.2543 56.2251C35.3444 56.1878 35.4262 56.1331 35.4951 56.0641C35.5641 55.9952 35.6188 55.9134 35.6561 55.8233C35.6934 55.7332 35.7126 55.6367 35.7126 55.5392C35.7126 55.4417 35.6934 55.3452 35.6561 55.2551C35.6188 55.165 35.5641 55.0832 35.4951 55.0142C35.4262 54.9453 35.3444 54.8906 35.2543 54.8533C35.1642 54.816 35.0677 54.7968 34.9702 54.7968Z" fill="#165EF0"/>
<path d="M32.3614 34.5428C32.3066 34.5424 32.2523 34.5529 32.2016 34.5736C32.1509 34.5943 32.1048 34.6248 32.0659 34.6633C32.0269 34.7018 31.996 34.7476 31.9748 34.7981C31.9536 34.8486 31.9425 34.9028 31.9423 34.9575C31.9411 35.1874 32.1266 35.3748 32.3567 35.3763C32.5869 35.3772 32.7744 35.1917 32.7758 34.9616C32.7767 34.7314 32.5912 34.544 32.3614 34.5428ZM32.4001 27.0423C31.2486 27.0364 30.3117 27.9636 30.3057 29.1151C30.2997 30.2636 31.2294 31.2031 32.3785 31.2094C33.5271 31.215 34.4668 30.2855 34.4728 29.1367C34.4788 27.9853 33.5517 27.0483 32.4001 27.0423ZM33.6394 29.1324C33.6358 29.8215 33.0721 30.3794 32.3828 30.376C31.6934 30.3722 31.1355 29.8085 31.1391 29.1194C31.1427 28.4285 31.7048 27.8721 32.3957 27.8757C33.0866 27.8793 33.643 28.4414 33.6394 29.1324Z" fill="#FFBB17"/>
<path d="M32.4346 20.375C32.3774 20.3746 32.3207 20.3861 32.2681 20.4087C32.2155 20.4313 32.1681 20.4645 32.1289 20.5063C32.0643 20.5749 30.5333 22.217 29.3008 24.7628C28.3127 26.8022 27.8066 28.8229 27.7965 30.7687C27.7946 31.2101 27.811 31.6515 27.8459 32.0915C26.3156 32.4793 25.7173 33.4246 25.4869 34.1716C24.9564 35.8914 25.8803 38.2213 27.0404 39.3936C27.1182 39.4721 27.224 39.5165 27.3345 39.517C27.445 39.5176 27.5512 39.4743 27.6298 39.3966C27.6687 39.3581 27.6996 39.3123 27.7208 39.2619C27.742 39.2114 27.7531 39.1573 27.7534 39.1025C27.7595 37.919 28.53 37.2302 28.8009 37.0245L29.0073 37.0256C29.2839 37.7133 29.5974 38.3591 29.9418 38.9482C30.0665 39.1613 30.2592 39.3267 30.4868 39.4272C30.3317 39.8408 30.2475 40.3061 30.245 40.7827C30.2372 42.2996 31.9212 44.3109 31.9929 44.3958C32.0318 44.4418 32.0802 44.4789 32.1348 44.5044C32.1893 44.5299 32.2488 44.5433 32.309 44.5436C32.3693 44.5439 32.4289 44.5312 32.4837 44.5062C32.5386 44.4813 32.5874 44.4448 32.6267 44.3991C32.6993 44.315 34.4042 42.3213 34.4121 40.8044C34.4146 40.3279 34.3353 39.8619 34.1846 39.4467C34.4266 39.3428 34.6142 39.1738 34.7346 38.9729C35.0848 38.3876 35.4051 37.7453 35.6889 37.0604L35.8952 37.0614C36.1639 37.27 36.9272 37.9668 36.921 39.1502C36.9206 39.2326 36.9447 39.3133 36.9901 39.3821C37.0355 39.4508 37.1003 39.5046 37.1763 39.5365C37.2523 39.5684 37.336 39.5771 37.4169 39.5615C37.4978 39.5458 37.5722 39.5065 37.6308 39.4486C38.8031 38.2884 39.7511 35.9683 39.2385 34.243C39.016 33.4938 38.4276 32.5423 36.9014 32.1386C36.9408 31.6989 36.9618 31.2578 36.9645 30.8163C36.9746 28.8705 36.4895 26.8447 35.5227 24.7952C34.3168 22.2367 32.8028 20.5787 32.739 20.5094C32.6606 20.4243 32.5504 20.3756 32.4346 20.375ZM27.0722 38.1012C26.3749 37.0287 25.9424 35.5227 26.2834 34.4171C26.5113 33.6783 27.0661 33.1796 27.9342 32.9305C28.0797 34.0399 28.3353 35.1319 28.6973 36.1906C28.6902 36.1922 28.5705 36.1779 28.4494 36.2536C28.3996 36.2847 27.4491 36.8917 27.0722 38.1012ZM33.5787 40.8C33.5745 41.6103 32.8317 42.7706 32.3147 43.4558C31.8048 42.7652 31.0742 41.5972 31.0784 40.787C31.0808 40.3333 31.1741 39.8986 31.3435 39.5382L33.3266 39.5485C33.4923 39.9107 33.5811 40.3462 33.5787 40.8ZM34.0196 38.5447C33.9556 38.6515 33.8244 38.7175 33.6776 38.7169L31.0015 38.703C30.8544 38.702 30.7239 38.6347 30.6611 38.5275C30.3904 38.0641 30.1393 37.5623 29.9114 37.0303L34.7847 37.0556C34.5513 37.5853 34.295 38.0844 34.0196 38.5447ZM38.4397 34.4803C38.7692 35.5894 38.321 37.0907 37.6127 38.1559C37.3679 37.3407 36.7575 36.5987 36.2456 36.289C36.1267 36.217 36.0166 36.2307 36.0075 36.2285C36.3804 35.1737 36.6473 34.0844 36.8044 32.9766C37.67 33.2347 38.2195 33.7393 38.4397 34.4803ZM36.1311 30.812C36.1279 31.3505 36.0959 31.8885 36.0353 32.4236C35.8888 33.7176 35.5819 34.9947 35.1227 36.224L29.5821 36.1952C29.1357 34.9612 28.8421 33.681 28.7091 32.3856C28.6539 31.8462 28.6272 31.3037 28.63 30.7729C28.6391 29.0271 29.0804 27.208 29.9398 25.3625L34.8777 25.3882C35.7179 27.2424 36.1402 29.066 36.1311 30.812ZM34.4726 24.5526L30.3536 24.5312C31.1348 23.0646 31.9862 21.9624 32.4293 21.4305C32.8669 21.9671 33.7068 23.0781 34.4726 24.5526Z" fill="#FFBB17"/>
<path d="M36.4976 40.3982C36.2674 40.397 36.08 40.5827 36.0788 40.8128L36.0704 42.4796C36.0693 42.7098 36.2549 42.8973 36.485 42.8984C36.7152 42.8996 36.9027 42.714 36.9038 42.4838L36.9122 40.817C36.9134 40.5869 36.7277 40.3993 36.4976 40.3982ZM28.1638 40.3548C27.9337 40.3536 27.7462 40.5391 27.7449 40.7693L27.736 42.4361C27.7347 42.6663 27.9203 42.8538 28.1504 42.8551C28.3804 42.8563 28.5681 42.6709 28.5693 42.4406L28.5783 40.7738C28.5795 40.5436 28.394 40.3561 28.1638 40.3548ZM34.8182 42.8899C34.5881 42.8886 34.4005 43.0743 34.3993 43.3044L34.3782 47.296C34.377 47.5262 34.5626 47.7137 34.7927 47.7149C35.0228 47.7162 35.2104 47.5306 35.2116 47.3004L35.2327 43.3088C35.2339 43.0786 35.0483 42.8911 34.8182 42.8899ZM32.4487 45.2349C32.2186 45.2336 32.031 45.4193 32.0298 45.6494L32.0087 49.641C32.0075 49.8712 32.1931 50.0587 32.4232 50.0599C32.6533 50.0611 32.8409 49.8756 32.8421 49.6454L32.8632 45.6537C32.8644 45.4236 32.6788 45.2361 32.4487 45.2349ZM29.8172 42.8639C29.5872 42.8627 29.3996 43.0483 29.3984 43.2784L29.3779 47.2701C29.3768 47.5002 29.5624 47.6877 29.7925 47.6889C30.0227 47.6901 30.2102 47.5045 30.2114 47.2744L30.2318 43.2827C30.233 43.0526 30.0474 42.8651 29.8172 42.8639ZM32.3741 32.0425C32.1439 32.0414 31.9564 32.2269 31.9552 32.4571L31.9508 33.2904C31.9496 33.5205 32.1352 33.708 32.3654 33.7093C32.5955 33.7104 32.7831 33.5248 32.7843 33.2947L32.7886 32.4614C32.7898 32.2313 32.6042 32.0438 32.3741 32.0425Z" fill="#FFBB17"/>
<path d="M32.3614 34.5428C32.3066 34.5424 32.2523 34.5529 32.2016 34.5736C32.1509 34.5943 32.1048 34.6248 32.0659 34.6633C32.0269 34.7018 31.996 34.7476 31.9748 34.7981C31.9536 34.8486 31.9425 34.9028 31.9423 34.9575C31.9411 35.1874 32.1266 35.3748 32.3567 35.3763C32.5869 35.3772 32.7744 35.1917 32.7758 34.9616C32.7767 34.7314 32.5912 34.544 32.3614 34.5428ZM32.4001 27.0423C31.2486 27.0364 30.3117 27.9636 30.3057 29.1151C30.2997 30.2636 31.2294 31.2031 32.3785 31.2094C33.5271 31.215 34.4668 30.2855 34.4728 29.1367C34.4788 27.9853 33.5517 27.0483 32.4001 27.0423ZM33.6394 29.1324C33.6358 29.8215 33.0721 30.3794 32.3828 30.376C31.6934 30.3722 31.1355 29.8085 31.1391 29.1194C31.1427 28.4285 31.7048 27.8721 32.3957 27.8757C33.0866 27.8793 33.643 28.4414 33.6394 29.1324Z" stroke="#FFBB17" stroke-width="0.5"/>
<path d="M32.4346 20.375C32.3774 20.3746 32.3207 20.3861 32.2681 20.4087C32.2155 20.4313 32.1681 20.4645 32.1289 20.5063C32.0643 20.5749 30.5333 22.217 29.3008 24.7628C28.3127 26.8022 27.8066 28.8229 27.7965 30.7687C27.7946 31.2101 27.811 31.6515 27.8459 32.0915C26.3156 32.4793 25.7173 33.4246 25.4869 34.1716C24.9564 35.8914 25.8803 38.2213 27.0404 39.3936C27.1182 39.4721 27.224 39.5165 27.3345 39.517C27.445 39.5176 27.5512 39.4743 27.6298 39.3966C27.6687 39.3581 27.6996 39.3123 27.7208 39.2619C27.742 39.2114 27.7531 39.1573 27.7534 39.1025C27.7595 37.919 28.53 37.2302 28.8009 37.0245L29.0073 37.0256C29.2839 37.7133 29.5974 38.3591 29.9418 38.9482C30.0665 39.1613 30.2592 39.3267 30.4868 39.4272C30.3317 39.8408 30.2475 40.3061 30.245 40.7827C30.2372 42.2996 31.9212 44.3109 31.9929 44.3958C32.0318 44.4418 32.0802 44.4789 32.1348 44.5044C32.1893 44.5299 32.2488 44.5433 32.309 44.5436C32.3693 44.5439 32.4289 44.5312 32.4837 44.5062C32.5386 44.4813 32.5874 44.4448 32.6267 44.3991C32.6993 44.315 34.4042 42.3213 34.4121 40.8044C34.4146 40.3279 34.3353 39.8619 34.1846 39.4467C34.4266 39.3428 34.6142 39.1738 34.7346 38.9729C35.0848 38.3876 35.4051 37.7453 35.6889 37.0604L35.8952 37.0614C36.1639 37.27 36.9272 37.9668 36.921 39.1502C36.9206 39.2326 36.9447 39.3133 36.9901 39.3821C37.0355 39.4508 37.1003 39.5046 37.1763 39.5365C37.2523 39.5684 37.336 39.5771 37.4169 39.5615C37.4978 39.5458 37.5722 39.5065 37.6308 39.4486C38.8031 38.2884 39.7511 35.9683 39.2385 34.243C39.016 33.4938 38.4276 32.5423 36.9014 32.1386C36.9408 31.6989 36.9618 31.2578 36.9645 30.8163C36.9746 28.8705 36.4895 26.8447 35.5227 24.7952C34.3168 22.2367 32.8028 20.5787 32.739 20.5094C32.6606 20.4243 32.5504 20.3756 32.4346 20.375ZM27.0722 38.1012C26.3749 37.0287 25.9424 35.5227 26.2834 34.4171C26.5113 33.6783 27.0661 33.1796 27.9342 32.9305C28.0797 34.0399 28.3353 35.1319 28.6973 36.1906C28.6902 36.1922 28.5705 36.1779 28.4494 36.2536C28.3996 36.2847 27.4491 36.8917 27.0722 38.1012ZM33.5787 40.8C33.5745 41.6103 32.8317 42.7706 32.3147 43.4558C31.8048 42.7652 31.0742 41.5972 31.0784 40.787C31.0808 40.3333 31.1741 39.8986 31.3435 39.5382L33.3266 39.5485C33.4923 39.9107 33.5811 40.3462 33.5787 40.8ZM34.0196 38.5447C33.9556 38.6515 33.8244 38.7175 33.6776 38.7169L31.0015 38.703C30.8544 38.702 30.7239 38.6347 30.6611 38.5275C30.3904 38.0641 30.1393 37.5623 29.9114 37.0303L34.7847 37.0556C34.5513 37.5853 34.295 38.0844 34.0196 38.5447ZM38.4397 34.4803C38.7692 35.5894 38.321 37.0907 37.6127 38.1559C37.3679 37.3407 36.7575 36.5987 36.2456 36.289C36.1267 36.217 36.0166 36.2307 36.0075 36.2285C36.3804 35.1737 36.6473 34.0844 36.8044 32.9766C37.67 33.2347 38.2195 33.7393 38.4397 34.4803ZM36.1311 30.812C36.1279 31.3505 36.0959 31.8885 36.0353 32.4236C35.8888 33.7176 35.5819 34.9947 35.1227 36.224L29.5821 36.1952C29.1357 34.9612 28.8421 33.681 28.7091 32.3856C28.6539 31.8462 28.6272 31.3037 28.63 30.7729C28.6391 29.0271 29.0804 27.208 29.9398 25.3625L34.8777 25.3882C35.7179 27.2424 36.1402 29.066 36.1311 30.812ZM34.4726 24.5526L30.3536 24.5312C31.1348 23.0646 31.9862 21.9624 32.4293 21.4305C32.8669 21.9671 33.7068 23.0781 34.4726 24.5526Z" stroke="#FFBB17" stroke-width="0.5"/>
<path d="M36.4976 40.3982C36.2674 40.397 36.08 40.5827 36.0788 40.8128L36.0704 42.4796C36.0693 42.7098 36.2549 42.8973 36.485 42.8984C36.7152 42.8996 36.9027 42.714 36.9038 42.4838L36.9122 40.817C36.9134 40.5869 36.7277 40.3993 36.4976 40.3982ZM28.1638 40.3548C27.9337 40.3536 27.7462 40.5391 27.7449 40.7693L27.736 42.4361C27.7347 42.6663 27.9203 42.8538 28.1504 42.8551C28.3804 42.8563 28.5681 42.6709 28.5693 42.4406L28.5783 40.7738C28.5795 40.5436 28.394 40.3561 28.1638 40.3548ZM34.8182 42.8899C34.5881 42.8886 34.4005 43.0743 34.3993 43.3044L34.3782 47.296C34.377 47.5262 34.5626 47.7137 34.7927 47.7149C35.0228 47.7162 35.2104 47.5306 35.2116 47.3004L35.2327 43.3088C35.2339 43.0786 35.0483 42.8911 34.8182 42.8899ZM32.4487 45.2349C32.2186 45.2336 32.031 45.4193 32.0298 45.6494L32.0087 49.641C32.0075 49.8712 32.1931 50.0587 32.4232 50.0599C32.6533 50.0611 32.8409 49.8756 32.8421 49.6454L32.8632 45.6537C32.8644 45.4236 32.6788 45.2361 32.4487 45.2349ZM29.8172 42.8639C29.5872 42.8627 29.3996 43.0483 29.3984 43.2784L29.3779 47.2701C29.3768 47.5002 29.5624 47.6877 29.7925 47.6889C30.0227 47.6901 30.2102 47.5045 30.2114 47.2744L30.2318 43.2827C30.233 43.0526 30.0474 42.8651 29.8172 42.8639ZM32.3741 32.0425C32.1439 32.0414 31.9564 32.2269 31.9552 32.4571L31.9508 33.2904C31.9496 33.5205 32.1352 33.708 32.3654 33.7093C32.5955 33.7104 32.7831 33.5248 32.7843 33.2947L32.7886 32.4614C32.7898 32.2313 32.6042 32.0438 32.3741 32.0425Z" stroke="#FFBB17" stroke-width="0.5"/>
</svg>
