
<svg width="65" height="65" viewBox="0 0 65 65" fill="none" xmlns="http://www.w3.org/2000/svg">
<path d="M31.8583 44.6806C31.5373 45.0016 31.515 45.4997 31.8085 45.7932C32.102 46.0867 32.6001 46.0644 32.9211 45.7434C33.3363 45.3282 33.2898 44.9496 33.137 44.4647C32.9842 43.9798 32.9377 43.6012 33.3529 43.186C33.6739 42.865 34.172 42.8427 34.4655 43.1362C34.759 43.4297 34.7367 43.9278 34.4157 44.2488" stroke="#FFBB17" stroke-miterlimit="10" stroke-linecap="round" stroke-linejoin="round"/>
<path d="M34.7311 42.8705L34.4655 43.1362" stroke="#FFBB17" stroke-miterlimit="10" stroke-linecap="round" stroke-linejoin="round"/>
<path d="M31.8083 45.7934L31.5426 46.0591" stroke="#FFBB17" stroke-miterlimit="10" stroke-linecap="round" stroke-linejoin="round"/>
<path d="M35.9408 45.1214C35.692 45.5374 35.3757 45.9455 34.9966 46.3246C33.3825 47.9388 31.2412 48.4146 30.2141 47.3874C29.1868 46.3602 29.6627 44.219 31.2768 42.6048C32.891 40.9907 35.0322 40.5149 36.0594 41.542C36.5566 42.0392 36.7016 42.7973 36.536 43.6304" stroke="#FFBB17" stroke-miterlimit="10" stroke-linecap="round" stroke-linejoin="round"/>
<path d="M36.0594 41.542L37.1222 42.6048C38.1493 43.6319 37.6736 45.7732 36.0594 47.3874C34.4452 49.0015 32.304 49.4773 31.2768 48.4502L30.214 47.3874" stroke="#FFBB17" stroke-miterlimit="10" stroke-linecap="round" stroke-linejoin="round"/>
<path d="M36.0666 4.26593C37.1172 4.53713 38.1242 4.95515 39.058 5.50764L40.0019 4.56363C40.1814 4.384 40.3946 4.24151 40.6292 4.14431C40.8638 4.04711 41.1153 3.99711 41.3693 3.99717C41.6232 3.99717 41.8746 4.0472 42.1091 4.14439C42.3436 4.24159 42.5567 4.38405 42.7361 4.56363L44.103 5.93054C44.2826 6.10998 44.4251 6.32306 44.5223 6.55759C44.6195 6.79212 44.6695 7.04352 44.6695 7.29739C44.6695 7.55135 44.6195 7.80283 44.5223 8.03745C44.4251 8.27207 44.2826 8.48522 44.103 8.66472L43.1591 9.60867C43.7115 10.5425 44.1295 11.5495 44.4008 12.6001H45.7333C46.801 12.6001 47.6666 13.4657 47.6666 14.5334V16.4667C47.6666 17.5344 46.801 18.4001 45.7333 18.4001H44.4008C44.1295 19.4506 43.7115 20.4576 43.1591 21.3914L44.103 22.3353C44.2826 22.5149 44.4251 22.728 44.5223 22.9626C44.6195 23.1973 44.6695 23.4488 44.6695 23.7027C44.6695 23.9566 44.6195 24.208 44.5223 24.4425C44.4251 24.6771 44.2826 24.8901 44.103 25.0696L42.7361 26.4364C42.5567 26.616 42.3436 26.7585 42.1091 26.8557C41.8746 26.9529 41.6232 27.0029 41.3693 27.0029C41.1153 27.003 40.8638 26.953 40.6292 26.8558C40.3946 26.7586 40.1814 26.6161 40.0019 26.4364L39.058 25.4925C38.1242 26.045 37.1172 26.463 36.0666 26.7341V28.0667C36.0666 29.1344 35.201 30.0001 34.1333 30.0001H32.1999C31.1322 30.0001 30.2666 29.1344 30.2666 28.0667V26.7341C29.2161 26.463 28.209 26.045 27.2752 25.4925L26.3313 26.4364C26.1518 26.6161 25.9386 26.7586 25.704 26.8558C25.4694 26.953 25.2179 27.003 24.964 27.0029C24.7101 27.0029 24.4587 26.9529 24.2242 26.8557C23.9896 26.7585 23.7765 26.616 23.5971 26.4364L22.2302 25.0696C22.0506 24.8901 21.9081 24.6771 21.8109 24.4425C21.7138 24.208 21.6637 23.9566 21.6637 23.7027C21.6637 23.4488 21.7137 23.1973 21.8109 22.9627C21.9081 22.728 22.0506 22.5149 22.2302 22.3353L23.1742 21.3914C22.6217 20.4576 22.2037 19.4506 21.9325 18.4001H20.6C19.5323 18.4001 18.6666 17.5344 18.6666 16.4667V14.5334C18.6666 13.4657 19.5323 12.6001 20.6 12.6001H21.9325C22.2037 11.5495 22.6217 10.5425 23.1742 9.60867L22.2302 8.66472C22.0506 8.48522 21.9081 8.27206 21.8109 8.03744C21.7137 7.80282 21.6637 7.55135 21.6637 7.29739C21.6637 7.04352 21.7138 6.79213 21.8109 6.5576C21.9081 6.32307 22.0506 6.10999 22.2302 5.93054L23.5971 4.56363C23.7765 4.38404 23.9896 4.24157 24.2242 4.14437C24.4587 4.04718 24.7101 3.99715 24.964 3.99717C25.2179 3.99711 25.4694 4.04712 25.704 4.14431C25.9386 4.24151 26.1518 4.384 26.3313 4.56363L27.2752 5.50764C28.209 4.95515 29.2161 4.53713 30.2666 4.26593V2.93337C30.2666 1.86567 31.1322 1.00006 32.1999 1.00006H34.1333C35.201 1.00006 36.0666 1.86567 36.0666 2.93337V4.26593Z" stroke="#165EF0" stroke-width="1.5" stroke-miterlimit="10" stroke-linecap="round" stroke-linejoin="round"/>
<path d="M33.1663 9.69993C36.3674 9.69993 38.9663 12.2988 38.9663 15.4999C38.9663 18.701 36.3674 21.2999 33.1663 21.2999C29.9651 21.2999 27.3663 18.701 27.3663 15.4999C27.3663 12.2988 29.9651 9.69993 33.1663 9.69993Z" stroke="#165EF0" stroke-width="1.5" stroke-miterlimit="10" stroke-linecap="round" stroke-linejoin="round"/>
<path d="M8.65663 15.4901L56.6566 15.0101C57.2128 15.0045 57.6666 15.4539 57.6666 16.01V20.5C57.6666 21.0523 57.2189 21.5 56.6666 21.5H55.6666L38.6666 36V42L26.6666 49.5L27.1666 36L9.66663 21.5H8.66663C8.11434 21.5 7.66663 21.0523 7.66663 20.5V16.49C7.66663 15.9417 8.10827 15.4956 8.65663 15.4901Z" fill="white"/>
<path d="M55.6666 21.5H56.6666C57.2189 21.5 57.6666 21.0523 57.6666 20.5V16.01C57.6666 15.4539 57.2128 15.0045 56.6566 15.0101L8.65663 15.4901C8.10827 15.4956 7.66663 15.9417 7.66663 16.49V20.5C7.66663 21.0523 8.11434 21.5 8.66663 21.5H9.66663M55.6666 21.5L38.6666 36M55.6666 21.5H9.66663M38.6666 36H27.1666M38.6666 36V42L26.6666 49.5L27.1666 36M27.1666 36L9.66663 21.5" stroke="black" stroke-width="1.5"/>
<path d="M38.5804 59.3051C38.9014 59.6261 39.3995 59.6485 39.693 59.355C39.9865 59.0615 39.9642 58.5633 39.6432 58.2423C39.228 57.8272 38.8494 57.8737 38.3645 58.0265C37.8796 58.1793 37.501 58.2258 37.0859 57.8106C36.7649 57.4896 36.7425 56.9915 37.036 56.698C37.3295 56.4045 37.8276 56.4268 38.1486 56.7478" stroke="#FFBB17" stroke-miterlimit="10" stroke-linecap="round" stroke-linejoin="round"/>
<path d="M36.7706 56.4323L37.0363 56.698" stroke="#FFBB17" stroke-miterlimit="10" stroke-linecap="round" stroke-linejoin="round"/>
<path d="M39.6935 59.3552L39.9592 59.6208" stroke="#FFBB17" stroke-miterlimit="10" stroke-linecap="round" stroke-linejoin="round"/>
<path d="M36.5048 59.8864C38.119 61.5006 40.2602 61.9763 41.2874 60.9492C42.3146 59.922 41.8388 57.7808 40.2246 56.1666C38.6105 54.5524 36.4693 54.0766 35.442 55.1038C34.4149 56.131 34.8907 58.2722 36.5048 59.8864Z" stroke="#FFBB17" stroke-miterlimit="10" stroke-linecap="round" stroke-linejoin="round"/>
<path d="M35.4419 55.104L34.3791 56.1668C33.3519 57.194 33.8277 59.3352 35.4419 60.9494C37.056 62.5635 39.1972 63.0394 40.2245 62.0122L41.2873 60.9494" stroke="#FFBB17" stroke-miterlimit="10" stroke-linecap="round" stroke-linejoin="round"/>
<path d="M28.5106 59.362C28.0567 59.3668 27.6923 59.7071 27.6967 60.1222C27.701 60.5372 28.0726 60.8697 28.5265 60.8649C29.1136 60.8587 29.3453 60.5557 29.5753 60.1023C29.8054 59.6489 30.037 59.3459 30.6242 59.3397C31.0781 59.3349 31.4496 59.6674 31.454 60.0825C31.4584 60.4975 31.094 60.8378 30.64 60.8426" stroke="#FFBB17" stroke-miterlimit="10" stroke-linecap="round" stroke-linejoin="round"/>
<path d="M31.8295 60.0785L31.4537 60.0825" stroke="#FFBB17" stroke-miterlimit="10" stroke-linecap="round" stroke-linejoin="round"/>
<path d="M27.6966 60.122L27.3209 60.126" stroke="#FFBB17" stroke-miterlimit="10" stroke-linecap="round" stroke-linejoin="round"/>
<path d="M31.291 57.6978C30.7602 57.5468 30.1693 57.4656 29.5472 57.4721C27.2646 57.4963 25.4266 58.6934 25.4419 60.146C25.4573 61.5985 27.3202 62.7566 29.6028 62.7324C31.8854 62.7083 33.7234 61.5112 33.7081 60.0586C33.7011 59.3977 33.3117 58.7978 32.6743 58.3425" stroke="#FFBB17" stroke-miterlimit="10" stroke-linecap="round" stroke-linejoin="round"/>
<path d="M33.7084 60.0588L33.6925 58.5559C33.6772 57.1033 31.8143 55.9453 29.5317 55.9694C27.249 55.9936 25.411 57.1906 25.4264 58.6432L25.4423 60.1462" stroke="#FFBB17" stroke-miterlimit="10" stroke-linecap="round" stroke-linejoin="round"/>
</svg>
