<svg width="64" height="64" viewBox="0 0 64 64" fill="none" xmlns="http://www.w3.org/2000/svg">
<path d="M30 40L22 32M22 32L30 24M22 32H42M8 32C8 35.1517 8.62077 38.2726 9.82689 41.1844C11.033 44.0962 12.8008 46.742 15.0294 48.9706C17.258 51.1992 19.9038 52.967 22.8156 54.1731C25.7274 55.3792 28.8483 56 32 56C35.1517 56 38.2726 55.3792 41.1844 54.1731C44.0962 52.967 46.742 51.1992 48.9706 48.9706C51.1992 46.742 52.967 44.0962 54.1731 41.1844C55.3792 38.2726 56 35.1517 56 32C56 25.6348 53.4714 19.5303 48.9706 15.0294C44.4697 10.5286 38.3652 8 32 8C25.6348 8 19.5303 10.5286 15.0294 15.0294C10.5286 19.5303 8 25.6348 8 32Z" stroke="#165EF0" stroke-width="2.5" stroke-linecap="round" stroke-linejoin="round"/>
</svg>
